<?xml version="1.0" encoding="UTF-8" standalone="no"?><svg xmlns="http://www.w3.org/2000/svg" xmlns:xlink="http://www.w3.org/1999/xlink" contentScriptType="text/ecmascript" fill="#ffffff" width="1802.3" zoomAndPan="magnify" contentStyleType="text/css" viewBox="-0.0 -2.3 1802.3 1812.0" height="1812" preserveAspectRatio="xMidYMid meet" version="1"><g data-name="Layer 2"><g id="change1_1" data-name="Layer 1"><path d="M1334.29325,1748.67383H85.85473A24.76486,24.76486,0,0,1,61.08589,1723.905V475.4641a24.7684,24.7684,0,0,1,24.76884-24.77121H1334.29325a24.7684,24.7684,0,0,1,24.76884,24.77121V1723.905A24.76486,24.76486,0,0,1,1334.29325,1748.67383ZM110.62356,1699.13615H1309.52441V500.23531H110.62356Z"/><path d="M1621.88751,1809.64838a24.69044,24.69044,0,0,1-17.51538-7.25346l-153.33654-153.33654a24.77048,24.77048,0,0,1,35.03075-35.03076l135.82117,135.82117,135.8259-135.82117a24.77049,24.77049,0,0,1,35.03076,35.03076l-153.34128,153.33654A24.69044,24.69044,0,0,1,1621.88751,1809.64838Z"/><path d="M1775.22879,592.42674a24.69294,24.69294,0,0,1-17.51538-7.25583l-135.8259-135.82353L1486.06634,585.17091a24.77048,24.77048,0,1,1-35.03075-35.03075l153.33654-153.33892a24.76877,24.76877,0,0,1,35.03076,0l153.34128,153.33892a24.77121,24.77121,0,0,1-17.51538,42.28658Z"/><path d="M1621.96331,1795.90423a24.76486,24.76486,0,0,1-24.76883-24.76883V459.94094a24.76884,24.76884,0,1,1,49.53767,0V1771.1354A24.76486,24.76486,0,0,1,1621.96331,1795.90423Z"/><path d="M1241.99285,356.22261a24.77121,24.77121,0,0,1-17.51538-42.28659l135.8259-135.82353-135.8259-135.8259a24.77048,24.77048,0,0,1,35.03075-35.03076l153.34129,153.34128a24.77447,24.77447,0,0,1,0,35.03076L1259.50822,348.96678A24.69291,24.69291,0,0,1,1241.99285,356.22261Z"/><path d="M178.10775,356.22261a24.69294,24.69294,0,0,1-17.51538-7.25583L7.25583,195.62787a24.76874,24.76874,0,0,1,0-35.03076L160.59237,7.25583a24.77049,24.77049,0,1,1,35.03076,35.03076L59.802,178.11249,195.62313,313.936a24.77121,24.77121,0,0,1-17.51538,42.28659Z"/><path d="M1381.52365,202.98793H70.32919a24.77121,24.77121,0,0,1,0-49.54242H1381.52365a24.77121,24.77121,0,0,1,0,49.54242Z"/><path d="M1334.28851,594.19865a12.32918,12.32918,0,0,1-8.201-3.108L1205.86768,484.74057a12.385,12.385,0,1,1,16.41148-18.55294L1342.499,572.53776a12.38446,12.38446,0,0,1-8.21048,21.66089Z"/><path d="M1334.28851,720.362a12.32918,12.32918,0,0,1-8.201-3.10795L1063.191,484.74057a12.385,12.385,0,1,1,16.41148-18.55294L1342.499,698.70107a12.38446,12.38446,0,0,1-8.21048,21.66089Z"/><path d="M1334.28851,846.19837a12.333,12.333,0,0,1-8.19627-3.10321L920.51436,484.74531a12.38537,12.38537,0,0,1,16.402-18.56242l405.57789,358.34985a12.3845,12.3845,0,0,1-8.20575,21.66563Z"/><path d="M1334.28851,972.36405a12.35628,12.35628,0,0,1-8.201-3.10558L778.15987,484.74294a12.38673,12.38673,0,0,1,16.41148-18.55768L1342.499,950.70079a12.38664,12.38664,0,0,1-8.21048,21.66326Z"/><path d="M1334.28851,1098.19808a12.34492,12.34492,0,0,1-8.19627-3.10321L635.488,484.74531a12.38537,12.38537,0,1,1,16.402-18.56242l690.6043,610.34957a12.38449,12.38449,0,0,1-8.20575,21.66562Z"/><path d="M1334.28851,1224.03212a12.345,12.345,0,0,1-8.19627-3.10321L492.80655,484.74531a12.38537,12.38537,0,0,1,16.402-18.56242l833.2857,736.1836a12.3845,12.3845,0,0,1-8.20575,21.66563Z"/><path d="M1334.28851,1350.1978a12.345,12.345,0,0,1-8.19627-3.10321L350.46153,484.74294a12.3836,12.3836,0,1,1,16.402-18.55768l975.63071,862.34691a12.3845,12.3845,0,0,1-8.20575,21.66563Z"/><path d="M1334.28851,1476.03184a12.345,12.345,0,0,1-8.19627-3.10321L208.11178,484.74294a12.38359,12.38359,0,1,1,16.402-18.55768l1117.98047,988.181a12.3845,12.3845,0,0,1-8.20575,21.66563Z"/><path d="M1334.28851,1601.86587a12.34492,12.34492,0,0,1-8.19627-3.10321L88.55049,505.22413a12.38536,12.38536,0,1,1,16.402-18.56241L1342.49426,1580.20025a12.38449,12.38449,0,0,1-8.20575,21.66562Z"/><path d="M1345.84857,1737.94288a12.32236,12.32236,0,0,1-8.20575-3.11269l-11.56005-10.23823L77.65372,621.8125a12.38714,12.38714,0,0,1,16.402-18.56716L1342.49426,1706.039l11.56953,10.24771a12.38443,12.38443,0,0,1-8.21522,21.65615Z"/><path d="M1200.8599,1736.28941a12.345,12.345,0,0,1-8.19627-3.10321L77.65372,747.6418a12.38359,12.38359,0,1,1,16.402-18.55768l1115.00991,985.53966a12.3845,12.3845,0,0,1-8.20574,21.66563Z"/><path d="M1058.51014,1736.28941a12.345,12.345,0,0,1-8.19627-3.10321L77.65372,873.4782a12.38448,12.38448,0,1,1,16.402-18.56l972.66016,859.70562a12.3845,12.3845,0,0,1-8.20575,21.66563Z"/><path d="M916.16039,1736.28941a12.345,12.345,0,0,1-8.19627-3.10321L77.65372,999.31461a12.38537,12.38537,0,0,1,16.402-18.56242l830.3104,733.87159a12.3845,12.3845,0,0,1-8.20574,21.66563Z"/><path d="M773.81063,1736.28941a12.35386,12.35386,0,0,1-8.19627-3.10321L77.65372,1125.47792a12.38537,12.38537,0,0,1,16.402-18.56242l687.96065,607.70828a12.3845,12.3845,0,0,1-8.20575,21.66563Z"/><path d="M631.134,1736.28941a12.345,12.345,0,0,1-8.19627-3.10321l-545.284-481.86951a12.38536,12.38536,0,0,1,16.402-18.56241l545.284,481.8695a12.3845,12.3845,0,0,1-8.20574,21.66563Z"/><path d="M488.45258,1736.28941a12.345,12.345,0,0,1-8.19627-3.10321L77.65372,1377.47763a12.38536,12.38536,0,0,1,16.402-18.56241l402.60259,355.70856a12.3845,12.3845,0,0,1-8.20574,21.66563Z"/><path d="M346.10756,1736.28941a12.32994,12.32994,0,0,1-8.19627-3.10321L77.65372,1503.31641a12.38537,12.38537,0,0,1,16.402-18.56242l260.25758,229.86979a12.3845,12.3845,0,0,1-8.20575,21.66563Z"/><path d="M203.42617,1736.28941a12.34381,12.34381,0,0,1-8.1868-3.09373L77.66319,1629.48683a12.3862,12.3862,0,1,1,16.38307-18.58137l117.57617,103.70885a12.38456,12.38456,0,0,1-8.19626,21.6751Z"/></g></g></svg>