<?xml version="1.0" encoding="UTF-8" standalone="no"?><svg xmlns="http://www.w3.org/2000/svg" xmlns:xlink="http://www.w3.org/1999/xlink" contentScriptType="text/ecmascript" fill="#000000" width="368.6" zoomAndPan="magnify" contentStyleType="text/css" viewBox="0.0 0.0 368.6 349.5" height="349.5" preserveAspectRatio="xMidYMid meet" version="1"><defs><clipPath id="a"><path d="M 0 0 L 101 0 L 101 349.488281 L 0 349.488281 Z M 0 0"/></clipPath><clipPath id="b"><path d="M 0 0 L 368.640625 0 L 368.640625 82 L 0 82 Z M 0 0"/></clipPath><clipPath id="c"><path d="M 89 70 L 368.640625 70 L 368.640625 349.488281 L 89 349.488281 Z M 89 70"/></clipPath></defs><g><g id="change1_6" clip-path="url(#a)"><path fill="#ffffff" d="M 100.800781 75.890625 C 100.800781 72.710938 98.222656 70.128906 95.039062 70.128906 C 91.859375 70.128906 89.28125 72.710938 89.28125 75.890625 L 89.28125 331.890625 L 11.519531 270.808594 L 11.519531 5.757812 C 11.519531 2.574219 8.941406 -0.00390625 5.761719 -0.00390625 C 2.578125 -0.00390625 0 2.574219 0 5.757812 L 0 273.597656 C 0 275.304688 0.757812 276.992188 2.203125 278.125 L 2.207031 278.121094 L 91.253906 348.070312 C 92.269531 348.953125 93.589844 349.488281 95.039062 349.488281 C 98.222656 349.488281 100.800781 346.910156 100.800781 343.730469 L 100.800781 75.890625"/></g><g id="change1_1" clip-path="url(#b)"><path fill="#ffffff" d="M 359.234375 80.34375 C 361.695312 82.355469 365.324219 81.996094 367.335938 79.535156 C 369.347656 77.074219 368.984375 73.445312 366.527344 71.433594 L 280.773438 1.300781 L 277.128906 5.757812 L 280.773438 1.300781 C 279.703125 0.421875 278.410156 -0.00390625 277.128906 -0.00390625 L 5.839844 -0.00390625 C 2.65625 -0.00390625 0.078125 2.574219 0.078125 5.757812 C 0.078125 7.703125 1.042969 9.425781 2.519531 10.464844 L 91.484375 80.410156 C 93.984375 82.375 97.597656 81.941406 99.5625 79.445312 C 101.527344 76.945312 101.09375 73.328125 98.59375 71.367188 L 22.472656 11.515625 L 275.078125 11.515625 L 359.234375 80.34375"/></g><g id="change1_2"><path fill="#ffffff" d="M 182.359375 1.4375 L 262.800781 71.570312 L 255.242188 80.210938 L 174.796875 10.078125 Z M 195.121094 80.210938 L 202.679688 71.570312 L 122.238281 1.4375 L 114.679688 10.078125 L 195.121094 80.210938"/></g><g id="change1_5" clip-path="url(#c)"><path fill="#ffffff" d="M 95.039062 70.128906 L 362.878906 70.128906 C 366.0625 70.128906 368.640625 72.710938 368.640625 75.890625 L 368.640625 343.730469 C 368.640625 346.910156 366.0625 349.488281 362.878906 349.488281 L 95.039062 349.488281 C 91.859375 349.488281 89.28125 346.910156 89.28125 343.730469 L 89.28125 75.890625 C 89.28125 72.710938 91.859375 70.128906 95.039062 70.128906 Z M 357.121094 81.648438 L 100.800781 81.648438 L 100.800781 337.96875 L 357.121094 337.96875 L 357.121094 81.648438"/></g><g id="change1_3"><path fill="#ffffff" d="M 264.78125 75.890625 L 264.78125 134.117188 L 254.949219 124.285156 L 254.785156 124.125 L 250.25 128.660156 L 246.179688 132.734375 L 237.570312 124.125 L 233.03125 128.660156 L 228.960938 132.734375 L 220.351562 124.125 L 211.742188 132.734375 L 207.671875 128.660156 L 203.132812 124.125 L 193.140625 134.117188 L 193.140625 75.890625 L 204.660156 75.890625 L 204.660156 109.359375 L 211.742188 116.441406 L 216.277344 111.90625 L 220.351562 107.835938 L 224.425781 111.90625 L 228.960938 116.441406 L 233.496094 111.90625 L 237.570312 107.835938 L 241.640625 111.90625 L 246.179688 116.441406 L 253.261719 109.359375 L 253.261719 75.890625 L 264.78125 75.890625"/></g><g id="change1_4"><path fill="#ffffff" d="M 124.285156 269.910156 L 207.679688 269.910156 L 207.679688 320.246094 L 118.523438 320.246094 L 118.523438 269.910156 Z M 196.160156 281.429688 L 130.042969 281.429688 L 130.042969 308.726562 L 196.160156 308.726562 L 196.160156 281.429688"/></g></g></svg>