<?xml version="1.0" encoding="UTF-8" standalone="no"?><svg xmlns="http://www.w3.org/2000/svg" xmlns:xlink="http://www.w3.org/1999/xlink" contentScriptType="text/ecmascript" fill="#000000" width="60" zoomAndPan="magnify" contentStyleType="text/css" viewBox="2.0 2.0 60.0 60.0" height="60" preserveAspectRatio="xMidYMid meet" version="1"><g fill="#ffffff" id="change1_1"><path fill="inherit" d="M 8 56 L 6 56 L 6 58 L 8 58 L 8 56"/><path fill="inherit" d="M 12 56 L 10 56 L 10 58 L 12 58 L 12 56"/><path fill="inherit" d="M 16 56 L 14 56 L 14 58 L 16 58 L 16 56"/><path fill="inherit" d="M 40 56 L 38 56 L 38 58 L 40 58 L 40 56"/><path fill="inherit" d="M 44 56 L 42 56 L 42 58 L 44 58 L 44 56"/><path fill="inherit" d="M 48 56 L 46 56 L 46 58 L 48 58 L 48 56"/><path fill="inherit" d="M 56 56 L 54 56 L 54 58 L 56 58 L 56 56"/><path fill="inherit" d="M 59 52 L 52 52 L 52 50 L 59 50 C 59.550781 50 60 50.449219 60 51 C 60 51.550781 59.550781 52 59 52 Z M 58 60 L 52 60 L 52 54 L 58 54 Z M 52 46 L 58 46 L 58 48 L 52 48 Z M 50 52 L 36 52 L 36 45.585938 L 50 37.710938 Z M 50 60 L 36 60 L 36 54 L 50 54 Z M 35.503906 35.136719 C 35.199219 34.957031 34.820312 34.957031 34.511719 35.128906 L 32.390625 36.320312 L 32.699219 27 L 39.300781 27 L 39.773438 41.167969 L 36 43.289062 L 36 36 C 36 35.644531 35.8125 35.316406 35.503906 35.136719 Z M 34 45 L 34 49 L 20 49 L 20 45.585938 L 34 37.710938 Z M 34 60 L 30 60 L 30 56 C 30 55.449219 29.550781 55 29 55 L 25 55 C 24.449219 55 24 55.449219 24 56 L 24 60 L 20 60 L 20 51 L 34 51 Z M 28 60 L 26 60 L 26 57 L 28 57 Z M 19.503906 35.136719 C 19.199219 34.957031 18.820312 34.957031 18.511719 35.128906 L 15.371094 36.894531 L 15.699219 27 L 22.300781 27 L 22.789062 41.71875 L 20 43.289062 L 20 36 C 20 35.644531 19.8125 35.316406 19.503906 35.136719 Z M 18 45 L 18 52 L 4 52 L 4 45.585938 L 18 37.710938 Z M 18 60 L 4 60 L 4 54 L 18 54 Z M 15.835938 23 L 22.164062 23 L 22.191406 23.71875 L 22.234375 25 L 15.769531 25 Z M 15.96875 19 L 22.03125 19 L 22.097656 21 L 15.902344 21 Z M 32.828125 23.191406 L 32.835938 23 L 39.164062 23 L 39.179688 23.453125 L 39.234375 25 L 32.765625 25 Z M 32.96875 19 L 39.03125 19 L 39.097656 21 L 32.902344 21 Z M 60 48.183594 L 60 45 C 60 44.449219 59.550781 44 59 44 L 52 44 L 52 36 C 52 35.644531 51.8125 35.316406 51.503906 35.136719 C 51.199219 34.957031 50.820312 34.957031 50.511719 35.128906 L 41.734375 40.0625 L 41 17.96875 C 40.980469 17.425781 40.539062 17 40 17 L 32 17 C 31.460938 17 31.019531 17.425781 31 17.96875 L 30.351562 37.46875 L 24.753906 40.617188 L 24 17.96875 C 23.980469 17.425781 23.539062 17 23 17 L 15 17 C 14.460938 17 14.019531 17.425781 14 17.96875 L 13.734375 25.96875 L 13.332031 38.039062 L 2.511719 44.128906 C 2.195312 44.304688 2 44.640625 2 45 L 2 61 C 2 61.550781 2.449219 62 3 62 L 59 62 C 59.550781 62 60 61.550781 60 61 L 60 53.816406 C 61.160156 53.402344 62 52.300781 62 51 C 62 49.699219 61.160156 48.597656 60 48.183594"/><path fill="inherit" d="M 33 11 C 33 9.34375 34.34375 8 36 8 L 39 8 C 39.550781 8 40 7.550781 40 7 C 40 5.34375 41.34375 4 43 4 L 51 4 L 51 6 C 51 7.65625 49.65625 9 48 9 L 45 9 C 44.449219 9 44 9.449219 44 10 C 44 11.65625 42.65625 13 41 13 L 33 13 Z M 32 15 L 41 15 C 43.414062 15 45.433594 13.28125 45.898438 11 L 48 11 C 50.757812 11 53 8.757812 53 6 L 53 3 C 53 2.449219 52.550781 2 52 2 L 43 2 C 40.585938 2 38.566406 3.71875 38.101562 6 L 36 6 C 33.242188 6 31 8.242188 31 11 L 31 14 C 31 14.550781 31.449219 15 32 15"/><path fill="inherit" d="M 16 12 C 16 10.34375 17.34375 9 19 9 C 19.550781 9 20 8.550781 20 8 L 20 7 C 20 5.34375 21.34375 4 23 4 L 28 4 L 28 5 C 28 6.65625 26.65625 8 25 8 C 24.449219 8 24 8.449219 24 9 L 24 10 C 24 11.65625 22.65625 13 21 13 L 16 13 Z M 15 15 L 21 15 C 23.757812 15 26 12.757812 26 10 L 26 9.898438 C 28.28125 9.433594 30 7.414062 30 5 L 30 3 C 30 2.449219 29.550781 2 29 2 L 23 2 C 20.242188 2 18 4.242188 18 7 L 18 7.101562 C 15.71875 7.566406 14 9.585938 14 12 L 14 14 C 14 14.550781 14.449219 15 15 15"/></g></svg>