<?xml version="1.0" encoding="UTF-8" standalone="no"?><svg xmlns="http://www.w3.org/2000/svg" xmlns:xlink="http://www.w3.org/1999/xlink" contentScriptType="text/ecmascript" fill="#ffffff" width="120.5" zoomAndPan="magnify" contentStyleType="text/css" viewBox="3.7 10.6 120.5 106.9" height="106.9" preserveAspectRatio="xMidYMid meet" version="1"><g id="change1_1"><path fill="inherit" d="M 6.894531 102.328125 C 7.328125 102.363281 7.761719 102.410156 8.203125 102.449219 C 8.070312 90.328125 7.558594 78.214844 7.441406 66.09375 C 7.078125 66.070312 6.714844 66.054688 6.351562 66.023438 C 6.242188 78.121094 7.015625 90.226562 6.894531 102.328125 Z M 9.363281 102.566406 C 10.007812 102.636719 10.65625 102.714844 11.300781 102.789062 C 11.191406 90.621094 10.742188 78.457031 10.632812 66.289062 C 9.960938 66.257812 9.277344 66.21875 8.605469 66.171875 C 8.71875 78.308594 9.238281 90.4375 9.363281 102.566406 Z M 12.46875 102.929688 C 13.265625 103.03125 14.074219 103.140625 14.878906 103.246094 C 14.761719 90.972656 14.320312 78.703125 14.203125 66.425781 C 13.398438 66.40625 12.601562 66.371094 11.796875 66.335938 C 11.910156 78.53125 12.351562 90.730469 12.46875 102.929688 Z M 18.449219 103.773438 C 18.332031 91.34375 17.890625 78.921875 17.773438 66.496094 C 16.96875 66.488281 16.164062 66.472656 15.367188 66.449219 C 15.480469 78.773438 15.921875 91.09375 16.039062 103.417969 C 16.84375 103.527344 17.652344 103.648438 18.449219 103.773438 Z M 21.398438 59.109375 C 21.863281 47.699219 19.917969 36.199219 20.40625 24.789062 C 19.835938 24.875 19.269531 24.96875 18.695312 25.054688 C 19.664062 36.324219 18.859375 47.777344 19.679688 59.054688 C 19.703125 59.078125 19.726562 59.085938 19.742188 59.109375 C 20.292969 59.109375 20.847656 59.109375 21.398438 59.109375 Z M 19.617188 103.953125 C 20.414062 104.078125 21.222656 104.207031 22.027344 104.332031 C 21.910156 91.722656 21.460938 79.121094 21.335938 66.511719 C 20.539062 66.511719 19.734375 66.511719 18.9375 66.503906 C 19.050781 78.988281 19.503906 91.46875 19.617188 103.953125 Z M 24.535156 59.117188 C 24.9375 47.535156 23.164062 35.863281 23.589844 24.296875 C 22.917969 24.394531 22.242188 24.503906 21.578125 24.605469 C 21.058594 36.074219 23.027344 47.644531 22.5625 59.109375 C 23.21875 59.117188 23.878906 59.117188 24.535156 59.117188 Z M 23.1875 104.523438 C 23.992188 104.65625 24.800781 104.789062 25.605469 104.917969 C 25.480469 92.109375 25.023438 79.300781 24.90625 66.488281 C 24.101562 66.496094 23.304688 66.503906 22.5 66.503906 C 22.621094 79.183594 23.074219 91.847656 23.1875 104.523438 Z M 27.679688 59.117188 C 28.015625 47.375 26.417969 35.539062 26.765625 23.800781 C 26.101562 23.898438 25.425781 24.007812 24.753906 24.109375 C 24.3125 35.75 26.101562 47.484375 25.699219 59.117188 C 26.355469 59.117188 27.023438 59.117188 27.679688 59.117188 Z M 26.765625 105.113281 C 27.574219 105.246094 28.371094 105.378906 29.175781 105.507812 C 29.058594 92.480469 28.59375 79.453125 28.46875 66.425781 C 27.671875 66.441406 26.867188 66.457031 26.070312 66.464844 C 26.1875 79.355469 26.652344 92.234375 26.765625 105.113281 Z M 30.808594 59.125 C 31.082031 47.21875 29.671875 35.207031 29.957031 23.304688 C 29.285156 23.402344 28.609375 23.511719 27.9375 23.613281 C 27.566406 35.414062 29.175781 47.320312 28.84375 59.125 C 29.5 59.125 30.160156 59.125 30.808594 59.125 Z M 30.34375 105.703125 C 31.144531 105.835938 31.949219 105.957031 32.753906 106.082031 C 32.628906 92.839844 32.15625 79.59375 32.039062 66.351562 C 31.234375 66.367188 30.4375 66.390625 29.632812 66.40625 C 29.757812 79.5 30.230469 92.597656 30.34375 105.703125 Z M 33.953125 59.132812 C 34.179688 47.058594 32.925781 34.882812 33.132812 22.808594 C 32.46875 22.90625 31.792969 23.015625 31.121094 23.125 C 30.816406 35.089844 32.242188 47.15625 31.972656 59.125 C 32.636719 59.125 33.296875 59.132812 33.953125 59.132812 Z M 35.324219 106.484375 C 35.65625 106.53125 35.992188 106.585938 36.324219 106.632812 C 36.207031 93.179688 35.726562 79.71875 35.605469 66.257812 C 34.804688 66.28125 34 66.304688 33.203125 66.320312 C 33.320312 79.632812 33.800781 92.945312 33.914062 106.269531 C 34.386719 106.339844 34.851562 106.414062 35.324219 106.484375 Z M 37.097656 59.132812 C 37.253906 46.894531 36.175781 34.546875 36.316406 22.3125 C 35.644531 22.421875 34.96875 22.519531 34.300781 22.628906 C 34.046875 34.757812 35.332031 46.996094 35.117188 59.132812 C 35.773438 59.132812 36.441406 59.132812 37.097656 59.132812 Z M 37.492188 106.808594 C 38.292969 106.925781 39.097656 107.050781 39.902344 107.171875 C 39.777344 93.503906 39.289062 79.84375 39.167969 66.171875 C 38.367188 66.195312 37.5625 66.210938 36.765625 66.234375 C 36.890625 79.757812 37.371094 93.28125 37.492188 106.808594 Z M 40.234375 59.140625 C 40.328125 46.730469 39.429688 34.222656 39.5 21.816406 C 38.824219 21.925781 38.152344 22.023438 37.476562 22.132812 C 37.300781 34.433594 38.414062 46.832031 38.261719 59.140625 C 38.917969 59.140625 39.578125 59.140625 40.234375 59.140625 Z M 43.378906 59.148438 C 43.402344 46.570312 42.683594 33.898438 42.675781 21.320312 C 42.007812 21.429688 41.335938 21.527344 40.660156 21.636719 C 40.546875 34.097656 41.480469 46.667969 41.398438 59.140625 C 42.054688 59.140625 42.722656 59.140625 43.378906 59.148438 Z M 41.0625 107.34375 C 41.871094 107.46875 42.675781 107.585938 43.472656 107.707031 C 43.347656 93.835938 42.859375 79.972656 42.738281 66.101562 C 41.929688 66.117188 41.132812 66.132812 40.328125 66.148438 C 40.453125 79.878906 40.949219 93.613281 41.0625 107.34375 Z M 44.542969 59.148438 C 45.199219 59.148438 45.859375 59.148438 46.515625 59.148438 C 46.46875 46.40625 45.933594 33.566406 45.859375 20.824219 C 45.183594 20.933594 44.511719 21.035156 43.835938 21.140625 C 43.796875 33.773438 44.558594 46.507812 44.542969 59.148438 Z M 44.644531 107.878906 C 45.441406 108.003906 46.246094 108.128906 47.050781 108.25 C 46.925781 94.175781 46.421875 80.121094 46.300781 66.046875 C 45.503906 66.054688 44.695312 66.070312 43.898438 66.078125 C 44.023438 80.019531 44.519531 93.945312 44.644531 107.878906 Z M 47.679688 59.148438 C 48.34375 59.15625 49.003906 59.15625 49.660156 59.15625 C 49.542969 46.242188 49.1875 33.238281 49.042969 20.328125 C 48.367188 20.4375 47.695312 20.539062 47.019531 20.644531 C 47.058594 33.449219 47.632812 46.34375 47.679688 59.148438 Z M 48.214844 108.429688 C 49.019531 108.542969 49.824219 108.667969 50.628906 108.792969 C 50.496094 94.542969 49.992188 80.289062 49.871094 66.03125 C 49.066406 66.03125 48.265625 66.039062 47.460938 66.039062 C 47.585938 80.175781 48.097656 94.292969 48.214844 108.429688 Z M 50.824219 59.15625 C 51.480469 59.15625 52.140625 59.15625 52.804688 59.15625 C 52.613281 46.082031 52.441406 32.914062 52.21875 19.832031 C 51.542969 19.941406 50.867188 20.050781 50.195312 20.152344 C 50.3125 33.117188 50.699219 46.191406 50.824219 59.15625 Z M 51.789062 108.972656 C 52.597656 109.09375 53.394531 109.21875 54.199219 109.34375 C 54.074219 94.914062 53.566406 80.492188 53.441406 66.070312 C 52.636719 66.054688 51.835938 66.046875 51.03125 66.046875 C 51.15625 80.351562 51.667969 94.664062 51.789062 108.972656 Z M 53.96875 59.164062 C 54.625 59.164062 55.285156 59.164062 55.949219 59.164062 C 55.679688 45.917969 55.695312 32.582031 55.402344 19.34375 C 54.726562 19.445312 54.050781 19.554688 53.378906 19.65625 C 53.574219 32.789062 53.773438 46.027344 53.96875 59.164062 Z M 57.769531 109.816406 C 57.648438 95.261719 57.136719 80.710938 57.003906 66.15625 C 56.207031 66.132812 55.402344 66.109375 54.601562 66.09375 C 54.726562 80.570312 55.238281 95.046875 55.359375 109.519531 C 56.128906 109.636719 56.941406 109.722656 57.769531 109.816406 Z M 57.105469 59.164062 C 57.769531 59.164062 58.429688 59.171875 59.085938 59.171875 C 58.746094 45.757812 58.957031 32.257812 58.574219 18.851562 C 57.902344 18.949219 57.226562 19.058594 56.554688 19.160156 C 56.824219 32.464844 56.839844 45.863281 57.105469 59.164062 Z M 61.644531 110.292969 C 61.535156 95.640625 61.070312 80.996094 60.976562 66.34375 C 60.039062 66.289062 59.101562 66.25 58.164062 66.210938 C 58.296875 80.785156 58.808594 95.355469 58.941406 109.933594 C 59.84375 110.03125 60.753906 110.140625 61.644531 110.292969 Z M 60.25 59.171875 C 60.90625 59.171875 61.566406 59.171875 62.222656 59.171875 C 61.789062 45.601562 62.207031 31.921875 61.757812 18.355469 C 61.085938 18.453125 60.410156 18.5625 59.738281 18.664062 C 60.085938 32.132812 59.90625 45.703125 60.25 59.171875 Z M 63.941406 110.832031 C 63.578125 96.058594 63.441406 81.28125 63.523438 66.511719 C 63.058594 66.472656 62.601562 66.449219 62.140625 66.417969 C 62.238281 81.128906 62.703125 95.820312 62.804688 110.527344 C 63.191406 110.613281 63.570312 110.714844 63.941406 110.832031 Z M 63.53125 63.816406 C 63.53125 63.761719 63.554688 63.71875 63.5625 63.664062 C 48.738281 63.777344 33.90625 63.878906 19.078125 63.949219 C 19.023438 63.957031 18.960938 63.957031 18.90625 63.949219 C 14.722656 63.972656 10.546875 63.996094 6.375 64.003906 C 6.367188 64.289062 6.367188 64.578125 6.367188 64.863281 C 25.320312 66.328125 44.574219 63.910156 63.53125 65.351562 C 63.53125 64.839844 63.53125 64.328125 63.53125 63.816406 Z M 64.035156 114.71875 C 64.011719 113.835938 63.988281 112.945312 63.972656 112.0625 C 61.210938 111.125 57.769531 111.0625 54.953125 110.621094 C 48.570312 109.628906 42.179688 108.675781 35.789062 107.714844 C 26.859375 106.382812 17.84375 104.601562 8.835938 103.671875 C 8.765625 103.679688 8.691406 103.671875 8.613281 103.65625 C 8.039062 103.597656 7.457031 103.535156 6.878906 103.480469 C 6.871094 103.976562 6.871094 104.472656 6.863281 104.960938 C 25.820312 108.699219 45.050781 111.070312 64.035156 114.71875 Z M 63.394531 59.179688 C 64.050781 59.179688 64.710938 59.179688 65.367188 59.179688 C 64.855469 45.4375 65.460938 31.597656 64.941406 17.859375 C 64.261719 17.960938 63.585938 18.066406 62.914062 18.175781 C 63.378906 31.808594 62.953125 45.539062 63.394531 59.179688 Z M 66.53125 59.179688 C 67.1875 59.179688 67.855469 59.179688 68.511719 59.1875 C 67.929688 45.277344 68.722656 31.265625 68.117188 17.363281 C 67.445312 17.472656 66.769531 17.570312 66.097656 17.679688 C 66.628906 31.472656 66.019531 45.375 66.53125 59.179688 Z M 69.675781 59.1875 C 70.332031 59.1875 70.992188 59.1875 71.65625 59.1875 C 71 45.113281 71.972656 30.941406 71.300781 16.867188 C 70.628906 16.976562 69.945312 17.074219 69.273438 17.183594 C 69.890625 31.148438 69.085938 45.214844 69.675781 59.1875 Z M 73.324219 71.664062 C 73.324219 71.042969 73.316406 70.429688 73.304688 69.820312 C 72.238281 69.84375 71.160156 69.875 70.085938 69.898438 C 70.078125 70.007812 70.046875 70.097656 69.992188 70.183594 C 69.976562 70.710938 69.960938 71.238281 69.945312 71.765625 C 71.070312 71.726562 72.199219 71.695312 73.324219 71.664062 Z M 73.398438 83.304688 C 73.398438 82.675781 73.398438 82.050781 73.390625 81.429688 C 72.484375 81.453125 71.585938 81.476562 70.679688 81.5 C 70.671875 81.601562 70.652344 81.691406 70.605469 81.769531 C 70.589844 82.3125 70.574219 82.855469 70.550781 83.398438 C 71.503906 83.367188 72.457031 83.335938 73.398438 83.304688 Z M 73.453125 95.84375 C 73.445312 95.253906 73.445312 94.671875 73.445312 94.085938 C 72.421875 94.222656 71.402344 94.355469 70.386719 94.496094 C 70.394531 94.628906 70.363281 94.742188 70.300781 94.835938 C 70.292969 95.316406 70.285156 95.804688 70.269531 96.292969 C 71.332031 96.136719 72.394531 95.988281 73.453125 95.84375 Z M 73.53125 107.570312 C 73.523438 106.980469 73.515625 106.398438 73.515625 105.8125 C 72.539062 105.941406 71.554688 106.074219 70.582031 106.207031 C 70.589844 106.332031 70.566406 106.453125 70.496094 106.546875 C 70.488281 107.027344 70.480469 107.515625 70.472656 107.996094 C 71.488281 107.855469 72.507812 107.707031 73.53125 107.570312 Z M 73.554688 110.582031 C 73.546875 109.957031 73.546875 109.320312 73.539062 108.683594 C 72.378906 108.847656 71.207031 109.011719 70.046875 109.171875 C 69.707031 109.21875 69.332031 109.03125 69.339844 108.636719 C 69.355469 107.839844 69.371094 107.050781 69.386719 106.253906 C 69.386719 106.183594 69.402344 106.121094 69.425781 106.058594 C 69.417969 106.019531 69.410156 105.988281 69.402344 105.953125 C 69.339844 105.664062 69.488281 105.457031 69.691406 105.339844 C 69.773438 105.253906 69.882812 105.175781 70.03125 105.160156 C 71.191406 105.003906 72.347656 104.851562 73.507812 104.695312 C 73.484375 102.117188 73.46875 99.539062 73.453125 96.964844 C 72.253906 97.128906 71.054688 97.300781 69.851562 97.46875 C 69.503906 97.515625 69.140625 97.332031 69.148438 96.925781 C 69.164062 96.128906 69.179688 95.339844 69.1875 94.542969 C 69.195312 94.472656 69.210938 94.410156 69.234375 94.347656 C 69.226562 94.316406 69.21875 94.277344 69.210938 94.238281 C 69.148438 93.953125 69.292969 93.742188 69.496094 93.636719 C 69.582031 93.542969 69.691406 93.472656 69.835938 93.449219 C 71.039062 93.285156 72.238281 93.132812 73.4375 92.96875 C 73.429688 90.121094 73.414062 87.269531 73.40625 84.417969 C 72.261719 84.457031 71.121094 84.496094 69.976562 84.527344 C 69.683594 84.542969 69.410156 84.265625 69.417969 83.96875 C 69.441406 83.148438 69.472656 82.320312 69.496094 81.5 C 69.496094 81.421875 69.519531 81.359375 69.542969 81.296875 C 69.535156 81.257812 69.527344 81.21875 69.519531 81.171875 C 69.480469 80.957031 69.566406 80.777344 69.699219 80.664062 C 69.78125 80.515625 69.929688 80.398438 70.148438 80.390625 C 71.230469 80.367188 72.308594 80.335938 73.390625 80.304688 C 73.375 77.8125 73.351562 75.3125 73.339844 72.808594 C 72.007812 72.855469 70.671875 72.894531 69.347656 72.933594 C 69.039062 72.941406 68.761719 72.660156 68.769531 72.351562 C 68.800781 71.53125 68.824219 70.703125 68.851562 69.882812 C 68.851562 69.804688 68.875 69.734375 68.898438 69.671875 C 68.890625 69.640625 68.882812 69.601562 68.875 69.5625 C 68.832031 69.324219 68.929688 69.136719 69.078125 69.015625 C 69.164062 68.867188 69.308594 68.757812 69.527344 68.757812 C 70.789062 68.726562 72.042969 68.695312 73.296875 68.664062 C 73.296875 68.386719 73.296875 68.101562 73.292969 67.820312 C 71.394531 67.789062 69.488281 67.742188 67.589844 67.675781 C 67.738281 82.265625 68.371094 96.859375 68.535156 111.449219 C 70.210938 111.164062 71.882812 110.875 73.554688 110.582031 Z M 72.820312 59.1875 C 73.476562 59.195312 74.136719 59.195312 74.792969 59.195312 C 74.058594 44.949219 75.234375 30.613281 74.476562 16.371094 C 73.800781 16.480469 73.128906 16.578125 72.457031 16.6875 C 73.152344 30.824219 72.152344 45.050781 72.820312 59.1875 Z M 75.957031 59.195312 C 76.597656 59.195312 77.25 59.195312 77.898438 59.195312 C 76.984375 44.835938 78.257812 30.289062 77.382812 15.921875 C 76.800781 16.015625 76.21875 16.101562 75.628906 16.191406 C 76.414062 30.488281 75.21875 44.894531 75.957031 59.195312 Z M 78.039062 61.152344 C 78.023438 60.890625 78 60.625 77.984375 60.355469 C 66.652344 60.339844 55.316406 60.324219 43.984375 60.308594 C 43.96875 60.308594 43.953125 60.308594 43.929688 60.308594 C 42.914062 60.300781 41.894531 60.300781 40.871094 60.300781 C 40.832031 60.300781 40.792969 60.300781 40.753906 60.300781 C 39.753906 60.300781 38.757812 60.300781 37.75 60.292969 C 37.695312 60.300781 37.640625 60.300781 37.578125 60.292969 C 36.59375 60.292969 35.613281 60.292969 34.636719 60.292969 C 34.558594 60.308594 34.480469 60.308594 34.402344 60.292969 C 33.441406 60.292969 32.476562 60.285156 31.515625 60.285156 C 31.421875 60.308594 31.320312 60.308594 31.226562 60.285156 C 30.28125 60.285156 29.339844 60.285156 28.394531 60.285156 C 28.285156 60.316406 28.160156 60.316406 28.050781 60.285156 C 27.121094 60.277344 26.203125 60.277344 25.28125 60.277344 C 25.148438 60.316406 25 60.316406 24.867188 60.277344 C 23.964844 60.277344 23.058594 60.277344 22.152344 60.269531 C 22.003906 60.324219 21.847656 60.324219 21.710938 60.269531 C 21.066406 60.269531 20.414062 60.269531 19.773438 60.269531 C 19.8125 60.710938 19.859375 61.152344 19.898438 61.59375 C 19.96875 61.59375 20.035156 61.59375 20.105469 61.59375 C 39.421875 61.464844 58.730469 61.292969 78.039062 61.152344 Z M 79.222656 68.527344 C 79.222656 68.292969 79.222656 68.054688 79.214844 67.820312 C 77.613281 67.84375 76.011719 67.851562 74.40625 67.835938 C 74.414062 68.109375 74.414062 68.371094 74.414062 68.644531 C 76.019531 68.605469 77.621094 68.566406 79.222656 68.527344 Z M 79.246094 71.484375 C 79.246094 70.882812 79.238281 70.277344 79.230469 69.679688 C 77.628906 69.71875 76.027344 69.757812 74.429688 69.796875 C 74.429688 70.40625 74.4375 71.011719 74.4375 71.625 C 76.039062 71.578125 77.644531 71.53125 79.246094 71.484375 Z M 79.316406 80.160156 C 79.300781 77.648438 79.277344 75.148438 79.261719 72.640625 C 77.660156 72.683594 76.054688 72.730469 74.453125 72.777344 C 74.46875 75.28125 74.492188 77.78125 74.507812 80.28125 C 76.109375 80.246094 77.714844 80.199219 79.316406 80.160156 Z M 79.324219 83.117188 C 79.324219 82.507812 79.324219 81.886719 79.316406 81.273438 C 77.714844 81.3125 76.109375 81.359375 74.507812 81.398438 C 74.515625 82.027344 74.515625 82.644531 74.515625 83.273438 C 76.117188 83.21875 77.722656 83.171875 79.324219 83.117188 Z M 79.363281 92.171875 C 79.355469 89.53125 79.339844 86.882812 79.332031 84.234375 C 77.730469 84.289062 76.125 84.335938 74.523438 84.386719 C 74.53125 87.199219 74.546875 90.011719 74.554688 92.824219 C 76.15625 92.605469 77.761719 92.390625 79.363281 92.171875 Z M 79.378906 95.015625 C 79.378906 94.441406 79.371094 93.867188 79.371094 93.285156 C 77.769531 93.503906 76.164062 93.722656 74.5625 93.9375 C 74.5625 94.519531 74.5625 95.105469 74.570312 95.6875 C 76.171875 95.464844 77.777344 95.238281 79.378906 95.015625 Z M 74.625 104.539062 C 76.226562 104.332031 77.832031 104.113281 79.433594 103.898438 C 79.417969 101.3125 79.394531 98.722656 79.386719 96.136719 C 77.777344 96.363281 76.171875 96.578125 74.570312 96.804688 C 74.585938 99.382812 74.601562 101.960938 74.625 104.539062 Z M 79.457031 106.738281 C 79.457031 106.167969 79.449219 105.585938 79.441406 105.011719 C 77.839844 105.230469 76.234375 105.445312 74.632812 105.65625 C 74.632812 106.246094 74.640625 106.828125 74.648438 107.414062 C 76.25 107.1875 77.851562 106.964844 79.457031 106.738281 Z M 79.480469 109.566406 C 79.480469 108.992188 79.472656 108.429688 79.464844 107.855469 C 77.859375 108.082031 76.257812 108.304688 74.65625 108.53125 C 74.660156 109.148438 74.660156 109.769531 74.667969 110.394531 C 76.273438 110.117188 77.875 109.839844 79.480469 109.566406 Z M 80.859375 83.070312 C 80.867188 82.460938 80.875 81.847656 80.882812 81.234375 C 80.734375 81.234375 80.585938 81.242188 80.433594 81.242188 C 80.441406 81.855469 80.441406 82.46875 80.441406 83.078125 C 80.578125 83.078125 80.71875 83.070312 80.859375 83.070312 Z M 80.980469 71.429688 C 80.988281 70.835938 80.996094 70.238281 81.003906 69.632812 C 80.789062 69.640625 80.570312 69.648438 80.355469 69.648438 C 80.355469 70.253906 80.363281 70.851562 80.363281 71.453125 C 80.570312 71.445312 80.773438 71.4375 80.980469 71.429688 Z M 81.035156 94.78125 C 81.035156 94.210938 81.035156 93.644531 81.035156 93.070312 C 80.851562 93.09375 80.671875 93.117188 80.484375 93.140625 C 80.484375 93.714844 80.492188 94.285156 80.492188 94.859375 C 80.671875 94.835938 80.851562 94.8125 81.035156 94.78125 Z M 81.230469 106.492188 C 81.230469 105.917969 81.230469 105.347656 81.230469 104.773438 C 81.003906 104.804688 80.78125 104.835938 80.554688 104.867188 C 80.5625 105.4375 80.570312 106.011719 80.570312 106.585938 C 80.789062 106.554688 81.011719 106.523438 81.230469 106.492188 Z M 82.113281 68.8125 C 82.113281 68.464844 82.113281 68.117188 82.113281 67.769531 C 82.097656 67.773438 82.089844 67.773438 82.074219 67.773438 C 81.492188 67.789062 80.914062 67.796875 80.339844 67.804688 C 80.339844 68.039062 80.339844 68.269531 80.339844 68.496094 C 80.757812 68.488281 81.175781 68.480469 81.59375 68.472656 C 81.871094 68.464844 82.042969 68.617188 82.113281 68.8125 Z M 83.027344 108.957031 C 83.136719 96.640625 82.230469 84.320312 82.113281 72.003906 C 82.089844 72.242188 81.941406 72.40625 81.757812 72.46875 C 81.671875 72.523438 81.578125 72.570312 81.453125 72.570312 C 81.089844 72.585938 80.734375 72.59375 80.378906 72.609375 C 80.394531 75.109375 80.417969 77.617188 80.433594 80.128906 C 80.773438 80.121094 81.113281 80.113281 81.445312 80.105469 C 81.8125 80.097656 81.988281 80.375 81.988281 80.65625 C 81.988281 80.6875 82.003906 80.710938 82.003906 80.746094 C 81.988281 81.683594 81.980469 82.621094 81.964844 83.566406 C 81.964844 83.832031 81.8125 83.992188 81.625 84.0625 C 81.539062 84.125 81.445312 84.171875 81.316406 84.171875 C 81.027344 84.179688 80.734375 84.1875 80.449219 84.203125 C 80.457031 86.804688 80.472656 89.414062 80.476562 92.023438 C 80.851562 91.96875 81.222656 91.925781 81.59375 91.878906 C 81.957031 91.824219 82.128906 92.085938 82.121094 92.375 C 82.136719 92.417969 82.152344 92.457031 82.152344 92.511719 C 82.152344 93.417969 82.152344 94.316406 82.152344 95.222656 C 82.152344 95.410156 82.074219 95.546875 81.957031 95.632812 C 81.894531 95.726562 81.796875 95.796875 81.648438 95.820312 C 81.261719 95.875 80.882812 95.929688 80.503906 95.972656 C 80.511719 98.570312 80.53125 101.15625 80.546875 103.75 C 80.96875 103.695312 81.378906 103.636719 81.789062 103.582031 C 82.152344 103.535156 82.324219 103.796875 82.316406 104.085938 C 82.328125 104.128906 82.34375 104.167969 82.34375 104.222656 C 82.34375 105.121094 82.34375 106.027344 82.34375 106.933594 C 82.34375 107.121094 82.269531 107.257812 82.152344 107.34375 C 82.089844 107.4375 81.996094 107.507812 81.84375 107.523438 C 81.421875 107.585938 81.003906 107.644531 80.578125 107.703125 C 80.585938 108.257812 80.585938 108.816406 80.59375 109.375 C 81.40625 109.234375 82.214844 109.09375 83.027344 108.957031 Z M 86.992188 67.789062 C 87.742188 67.519531 88.496094 67.257812 89.246094 66.992188 C 87.464844 67.0625 85.683594 67.140625 83.902344 67.21875 C 83.761719 81.171875 84.949219 95.144531 84.808594 109.109375 C 85.574219 109.011719 86.335938 108.917969 87.101562 108.816406 C 87.257812 95.664062 86.226562 82.542969 86.667969 69.363281 C 86.242188 68.953125 86.25 68.046875 86.992188 67.789062 Z M 90.207031 108.304688 C 90.175781 106.777344 90.144531 105.253906 90.105469 103.726562 C 90.027344 103.742188 89.949219 103.757812 89.882812 103.773438 C 89.152344 103.882812 88.84375 102.773438 89.570312 102.660156 C 89.734375 102.636719 89.898438 102.597656 90.058594 102.566406 C 89.980469 100.082031 89.890625 97.59375 89.78125 95.105469 C 89.765625 95.113281 89.75 95.113281 89.734375 95.113281 C 89.371094 95.160156 89.183594 94.90625 89.183594 94.621094 C 89.183594 94.324219 89.371094 94.015625 89.734375 93.960938 C 89.65625 92.21875 89.578125 90.476562 89.492188 88.734375 C 89.433594 88.75 89.371094 88.773438 89.308594 88.789062 C 88.59375 89.003906 88.292969 87.898438 88.996094 87.679688 C 89.144531 87.632812 89.292969 87.585938 89.441406 87.539062 C 89.378906 86.121094 89.316406 84.707031 89.253906 83.289062 C 88.546875 83.398438 88.269531 82.328125 88.984375 82.171875 C 89.050781 82.15625 89.128906 82.140625 89.199219 82.125 C 89.089844 79.5625 88.992188 77 88.914062 74.4375 C 88.378906 74.289062 88.363281 73.484375 88.875 73.34375 C 88.835938 71.910156 88.804688 70.476562 88.78125 69.046875 C 88.664062 69.085938 88.542969 69.128906 88.425781 69.167969 C 88.433594 69.214844 88.457031 69.253906 88.449219 69.308594 C 88.015625 82.5 89.035156 95.625 88.882812 108.792969 C 89.324219 108.628906 89.765625 108.46875 90.207031 108.304688 Z M 91.824219 67.96875 C 91.191406 68.195312 90.554688 68.417969 89.925781 68.644531 C 89.949219 70.199219 89.980469 71.75 90.027344 73.304688 C 90.5625 73.28125 91.089844 73.226562 91.617188 73.136719 C 91.617188 71.398438 91.679688 69.671875 91.824219 67.96875 Z M 90.34375 81.878906 C 90.855469 81.769531 91.367188 81.660156 91.878906 81.554688 C 91.761719 79.136719 91.648438 76.714844 91.617188 74.304688 C 91.105469 74.382812 90.585938 74.4375 90.066406 74.460938 C 90.144531 76.9375 90.238281 79.40625 90.34375 81.878906 Z M 90.578125 87.199219 C 91.082031 87.042969 91.578125 86.890625 92.082031 86.742188 C 92.050781 85.410156 91.996094 84.070312 91.933594 82.714844 C 91.421875 82.832031 90.902344 82.941406 90.394531 83.046875 C 90.453125 84.433594 90.515625 85.8125 90.578125 87.199219 Z M 92.21875 93.355469 C 92.171875 91.550781 92.144531 89.746094 92.113281 87.933594 C 91.617188 88.089844 91.128906 88.238281 90.632812 88.386719 C 90.71875 90.171875 90.800781 91.964844 90.878906 93.753906 C 91.328125 93.644531 91.777344 93.511719 92.21875 93.355469 Z M 92.382812 101.953125 C 92.351562 99.492188 92.296875 97.027344 92.242188 94.566406 C 91.808594 94.703125 91.367188 94.8125 90.925781 94.90625 C 91.035156 97.375 91.128906 99.847656 91.207031 102.308594 C 91.609375 102.210938 91.996094 102.09375 92.382812 101.953125 Z M 92.429688 107.476562 C 92.429688 106.035156 92.421875 104.59375 92.40625 103.152344 C 92.019531 103.277344 91.640625 103.386719 91.242188 103.488281 C 91.289062 104.953125 91.320312 106.414062 91.34375 107.878906 C 91.710938 107.746094 92.074219 107.617188 92.429688 107.476562 Z M 93.785156 106.980469 C 93.800781 105.523438 93.808594 104.078125 93.824219 102.628906 C 93.730469 102.667969 93.644531 102.699219 93.550781 102.730469 C 93.574219 104.167969 93.582031 105.609375 93.582031 107.050781 C 93.652344 107.027344 93.722656 107.003906 93.785156 106.980469 Z M 93.832031 101.542969 C 93.917969 90.089844 94 78.625 94.085938 67.171875 C 93.730469 67.292969 93.367188 67.425781 93.011719 67.550781 C 92.839844 69.316406 92.769531 71.113281 92.761719 72.925781 C 93.335938 72.972656 93.53125 73.886719 92.878906 74.046875 C 92.839844 74.054688 92.808594 74.0625 92.769531 74.070312 C 92.792969 76.542969 92.910156 79.027344 93.027344 81.5 C 93.320312 81.722656 93.382812 82.203125 93.074219 82.421875 C 93.132812 83.769531 93.1875 85.109375 93.226562 86.433594 C 93.800781 86.441406 93.992188 87.363281 93.351562 87.5625 C 93.320312 87.570312 93.289062 87.578125 93.257812 87.585938 C 93.257812 87.59375 93.257812 87.601562 93.257812 87.601562 C 93.289062 89.53125 93.328125 91.460938 93.375 93.378906 C 93.46875 93.558594 93.480469 93.789062 93.382812 93.984375 C 93.4375 96.5 93.488281 99.019531 93.53125 101.535156 C 93.636719 101.511719 93.738281 101.511719 93.832031 101.542969 Z M 94.101562 65.273438 C 94.109375 64.660156 94.109375 64.042969 94.117188 63.429688 C 84.507812 63.5 74.894531 63.578125 65.289062 63.65625 C 65.296875 63.710938 65.320312 63.753906 65.320312 63.816406 C 65.191406 80.902344 65.359375 97.980469 65.824219 115.058594 C 66.003906 115.097656 66.179688 115.121094 66.359375 115.160156 C 66.484375 115.105469 66.621094 115.058594 66.785156 115.050781 C 75.375 114.414062 84.933594 112.09375 93.761719 110.535156 C 93.761719 109.984375 93.769531 109.4375 93.769531 108.878906 C 91.988281 109.542969 90.207031 110.203125 88.425781 110.859375 C 88.132812 110.96875 87.890625 110.921875 87.707031 110.78125 C 87.363281 110.691406 87.09375 110.425781 87.09375 109.96875 C 86.355469 110.0625 85.628906 110.15625 84.894531 110.25 C 84.785156 110.382812 84.628906 110.480469 84.40625 110.519531 C 79.007812 111.449219 73.617188 112.378906 68.21875 113.308594 C 68.039062 113.339844 67.878906 113.316406 67.738281 113.269531 C 67.265625 113.300781 66.761719 113.027344 66.761719 112.417969 C 66.621094 97.359375 65.941406 82.3125 65.792969 67.25 C 65.4375 66.714844 65.664062 65.816406 66.484375 65.855469 C 71.679688 66.070312 76.878906 66.117188 82.074219 65.992188 C 82.269531 65.984375 82.40625 66.039062 82.539062 66.117188 C 82.585938 66.117188 82.625 66.117188 82.671875 66.109375 C 82.855469 66.046875 83.058594 66.046875 83.25 66.085938 C 86.480469 65.957031 89.71875 65.816406 92.957031 65.683594 C 93.34375 65.542969 93.722656 65.414062 94.101562 65.273438 Z M 80.363281 61.136719 C 89.425781 61.074219 98.476562 61.023438 107.53125 60.976562 C 107.207031 45.964844 107.71875 30.941406 107.394531 15.9375 C 98.175781 14.960938 88.976562 13.863281 79.75 12.894531 C 79.671875 12.886719 79.601562 12.871094 79.535156 12.847656 C 79.519531 12.855469 79.503906 12.855469 79.488281 12.855469 C 80.828125 28.863281 79.125 45.121094 80.363281 61.136719 Z M 121.527344 105.863281 C 121.84375 99.011719 121.519531 92.046875 121.496094 85.195312 C 121.480469 80.230469 121.457031 75.257812 121.394531 70.292969 C 121.371094 68.203125 121.628906 65.09375 121.28125 63.234375 C 116.609375 63.253906 111.929688 63.296875 107.261719 63.328125 C 103.472656 63.359375 99.6875 63.390625 95.90625 63.414062 C 95.78125 79.011719 95.667969 94.613281 95.550781 110.21875 C 104.101562 108.722656 112.875 106.546875 121.527344 105.863281 Z M 123.820312 84.410156 C 123.84375 91.902344 124.222656 99.515625 123.804688 106.996094 C 123.757812 107.886719 122.898438 108.242188 122.238281 108.066406 C 122.132812 108.109375 122.007812 108.148438 121.867188 108.15625 C 112.945312 108.816406 102.96875 111.308594 93.863281 112.851562 C 84.957031 114.367188 75.800781 116.703125 66.785156 117.375 C 66.667969 117.382812 66.570312 117.367188 66.46875 117.351562 C 66.273438 117.429688 66.050781 117.460938 65.792969 117.414062 C 45.890625 113.464844 25.683594 111.0625 5.777344 107.113281 C 5.296875 107.019531 5.042969 106.710938 4.972656 106.351562 C 4.699219 106.175781 4.523438 105.871094 4.53125 105.445312 C 4.878906 91.195312 3.71875 76.90625 4.066406 62.65625 C 4.089844 61.625 5.1875 61.308594 5.871094 61.6875 C 9.773438 61.671875 13.675781 61.640625 17.574219 61.609375 C 16.328125 48.714844 17.558594 35.554688 16.140625 22.675781 C 16.101562 22.296875 16.21875 22.015625 16.417969 21.832031 C 16.535156 21.351562 16.777344 20.910156 17.132812 20.554688 C 17.308594 20.234375 17.628906 19.988281 18.085938 19.957031 C 28.058594 19.289062 38.996094 16.757812 49.132812 15.1875 C 59.0625 13.644531 69.242188 11.242188 79.269531 10.570312 C 79.339844 10.5625 79.402344 10.570312 79.464844 10.578125 C 79.550781 10.5625 79.648438 10.5625 79.75 10.570312 C 89.152344 11.554688 98.53125 12.683594 107.925781 13.667969 C 108.40625 13.714844 108.726562 13.992188 108.894531 14.34375 C 109.328125 14.472656 109.691406 14.820312 109.707031 15.410156 C 110.058594 30.589844 109.523438 45.785156 109.855469 60.96875 C 113.859375 60.953125 117.863281 60.921875 121.867188 60.914062 C 122.417969 60.914062 122.757812 61.222656 122.90625 61.609375 C 123.167969 61.734375 123.386719 61.964844 123.472656 62.34375 C 124.015625 64.636719 123.6875 67.363281 123.710938 69.6875 C 123.773438 74.597656 123.796875 79.5 123.820312 84.410156 Z M 18.671875 22.34375 C 18.671875 22.351562 18.671875 22.371094 18.65625 22.40625 C 18.65625 22.421875 18.65625 22.441406 18.65625 22.480469 C 18.648438 22.683594 18.59375 22.867188 18.503906 23.03125 C 18.535156 23.324219 18.558594 23.613281 18.589844 23.90625 C 38.160156 20.855469 57.730469 17.8125 77.304688 14.769531 C 77.265625 14.203125 77.226562 13.636719 77.179688 13.078125 C 67.777344 13.933594 57.652344 16.199219 48.21875 17.664062 C 43.363281 18.425781 38.445312 19.378906 33.519531 20.234375 C 28.585938 21.105469 23.644531 21.863281 18.734375 22.226562 C 18.710938 22.265625 18.6875 22.296875 18.671875 22.335938 C 18.671875 22.335938 18.671875 22.335938 18.671875 22.34375"/><path fill="inherit" d="M 100.691406 70.796875 C 100.679688 70.261719 100.679688 69.726562 100.671875 69.183594 C 99.917969 69.238281 99.167969 69.292969 98.417969 69.355469 C 98.429688 69.859375 98.429688 70.355469 98.417969 70.855469 C 99.175781 70.855469 99.933594 70.835938 100.691406 70.796875 Z M 100.910156 81.34375 C 100.894531 80.808594 100.886719 80.269531 100.871094 79.734375 C 100.058594 79.789062 99.246094 79.84375 98.429688 79.910156 C 98.449219 80.414062 98.449219 80.917969 98.429688 81.414062 C 99.261719 81.414062 100.089844 81.390625 100.910156 81.34375 Z M 101.195312 92.375 C 101.179688 91.863281 101.171875 91.34375 101.15625 90.824219 C 100.042969 90.972656 98.933594 91.125 97.820312 91.296875 C 97.84375 91.769531 97.851562 92.25 97.84375 92.722656 C 98.964844 92.636719 100.082031 92.519531 101.195312 92.375 Z M 101.398438 102.953125 C 101.390625 102.433594 101.390625 101.914062 101.382812 101.402344 C 100.296875 101.542969 99.222656 101.691406 98.152344 101.859375 C 98.167969 102.332031 98.175781 102.804688 98.167969 103.285156 C 99.253906 103.203125 100.328125 103.09375 101.398438 102.953125 Z M 103.589844 67.898438 C 103.582031 67.519531 103.582031 67.132812 103.574219 66.746094 C 102.96875 66.753906 102.359375 66.769531 101.753906 66.777344 C 101.761719 67.179688 101.769531 67.589844 101.769531 67.992188 C 102.375 67.953125 102.984375 67.929688 103.589844 67.898438 Z M 103.621094 70.585938 C 103.613281 70.058594 103.613281 69.539062 103.605469 69.015625 C 103 69.046875 102.390625 69.070312 101.785156 69.105469 C 101.792969 69.648438 101.800781 70.199219 101.808594 70.742188 C 102.414062 70.703125 103.015625 70.648438 103.621094 70.585938 Z M 101.964844 78.53125 C 102.566406 78.503906 103.171875 78.476562 103.785156 78.457031 C 103.730469 76.203125 103.675781 73.949219 103.636719 71.695312 C 103.03125 71.757812 102.429688 71.808594 101.824219 71.847656 C 101.863281 74.078125 101.910156 76.308594 101.964844 78.53125 Z M 103.847656 81.128906 C 103.828125 80.609375 103.820312 80.089844 103.808594 79.570312 C 103.203125 79.59375 102.589844 79.617188 101.988281 79.648438 C 102.003906 80.199219 102.011719 80.738281 102.023438 81.289062 C 102.628906 81.242188 103.242188 81.191406 103.847656 81.128906 Z M 104.0625 89.375 C 104 86.992188 103.9375 84.613281 103.875 82.234375 C 103.265625 82.296875 102.660156 82.351562 102.058594 82.398438 C 102.117188 84.789062 102.179688 87.183594 102.242188 89.570312 C 102.847656 89.5 103.457031 89.4375 104.0625 89.375 Z M 104.125 91.917969 C 104.117188 91.4375 104.101562 90.964844 104.09375 90.484375 C 103.480469 90.554688 102.878906 90.605469 102.273438 90.683594 C 102.28125 91.195312 102.296875 91.707031 102.304688 92.210938 C 102.914062 92.125 103.519531 92.023438 104.125 91.917969 Z M 102.476562 100.140625 C 103.085938 100.070312 103.691406 100.011719 104.304688 99.941406 C 104.265625 97.640625 104.210938 95.339844 104.15625 93.039062 C 103.550781 93.148438 102.9375 93.25 102.335938 93.335938 C 102.390625 95.601562 102.4375 97.871094 102.476562 100.140625 Z M 104.332031 102.496094 C 104.332031 102.015625 104.324219 101.535156 104.316406 101.054688 C 103.714844 101.125 103.101562 101.179688 102.496094 101.257812 C 102.507812 101.769531 102.507812 102.277344 102.511719 102.789062 C 103.125 102.707031 103.730469 102.605469 104.332031 102.496094 Z M 104.363281 104.914062 C 104.363281 104.488281 104.355469 104.054688 104.347656 103.628906 C 103.746094 103.734375 103.132812 103.828125 102.527344 103.914062 C 102.535156 104.347656 102.535156 104.78125 102.542969 105.207031 C 103.148438 105.113281 103.761719 105.011719 104.363281 104.914062 Z M 105.589844 91.628906 C 105.609375 91.195312 105.605469 90.753906 105.566406 90.328125 C 105.449219 90.335938 105.324219 90.351562 105.207031 90.367188 C 105.214844 90.808594 105.222656 91.25 105.238281 91.699219 C 105.355469 91.675781 105.472656 91.652344 105.589844 91.628906 Z M 105.914062 102.1875 C 105.9375 101.753906 105.929688 101.320312 105.890625 100.886719 C 105.742188 100.902344 105.589844 100.914062 105.433594 100.933594 C 105.441406 101.382812 105.441406 101.832031 105.449219 102.277344 C 105.605469 102.25 105.757812 102.21875 105.914062 102.1875 Z M 105.921875 70.308594 C 105.945312 69.84375 105.9375 69.386719 105.90625 68.929688 C 105.511719 68.9375 105.117188 68.960938 104.722656 68.976562 C 104.730469 69.472656 104.730469 69.96875 104.734375 70.460938 C 105.132812 70.414062 105.527344 70.363281 105.921875 70.308594 Z M 105.9375 80.863281 C 105.960938 80.40625 105.960938 79.941406 105.921875 79.484375 C 105.589844 79.492188 105.253906 79.515625 104.921875 79.523438 C 104.9375 80.011719 104.945312 80.507812 104.960938 80.996094 C 105.285156 80.957031 105.609375 80.910156 105.9375 80.863281 Z M 105.480469 104.734375 C 106.472656 104.570312 107.453125 104.417969 108.4375 104.253906 C 108.175781 91.800781 108.769531 79.066406 107.671875 66.667969 C 106.679688 66.691406 105.679688 66.714844 104.691406 66.730469 C 104.695312 67.101562 104.703125 67.480469 104.703125 67.859375 C 105.277344 67.835938 105.859375 67.796875 106.433594 67.789062 C 106.796875 67.78125 106.976562 68.070312 106.96875 68.355469 C 106.976562 68.378906 106.988281 68.394531 106.988281 68.425781 C 107.082031 69.183594 107.089844 69.945312 107.019531 70.710938 C 107.011719 70.789062 106.988281 70.851562 106.960938 70.910156 C 106.949219 71.113281 106.835938 71.300781 106.554688 71.339844 C 105.960938 71.429688 105.355469 71.507812 104.753906 71.578125 C 104.789062 73.855469 104.84375 76.132812 104.898438 78.410156 C 105.410156 78.394531 105.929688 78.363281 106.449219 78.347656 C 106.820312 78.339844 106.996094 78.625 106.980469 78.914062 C 106.988281 78.933594 107.003906 78.960938 107.003906 78.980469 C 107.097656 79.75 107.105469 80.5 107.035156 81.265625 C 107.027344 81.34375 107.003906 81.40625 106.980469 81.46875 C 106.96875 81.675781 106.851562 81.855469 106.578125 81.902344 C 106.046875 81.980469 105.519531 82.042969 104.984375 82.109375 C 105.046875 84.488281 105.117188 86.867188 105.179688 89.253906 C 105.480469 89.222656 105.773438 89.183594 106.074219 89.152344 C 106.410156 89.121094 106.578125 89.351562 106.601562 89.609375 C 106.601562 89.617188 106.609375 89.625 106.617188 89.640625 C 106.726562 90.429688 106.757812 91.210938 106.695312 92 C 106.6875 92.09375 106.65625 92.179688 106.617188 92.25 C 106.585938 92.425781 106.472656 92.589844 106.230469 92.636719 C 105.90625 92.707031 105.589844 92.761719 105.261719 92.824219 C 105.324219 95.152344 105.371094 97.484375 105.417969 99.824219 C 105.742188 99.785156 106.066406 99.746094 106.402344 99.714844 C 106.734375 99.683594 106.90625 99.910156 106.929688 100.164062 C 106.929688 100.179688 106.9375 100.1875 106.941406 100.195312 C 107.050781 100.984375 107.082031 101.769531 107.019531 102.566406 C 107.011719 102.660156 106.980469 102.734375 106.941406 102.804688 C 106.914062 102.984375 106.796875 103.148438 106.554688 103.191406 C 106.191406 103.269531 105.828125 103.339844 105.464844 103.410156 C 105.472656 103.851562 105.480469 104.292969 105.480469 104.734375 Z M 112.441406 69.789062 C 112.433594 69.269531 112.425781 68.75 112.417969 68.222656 C 112.101562 68.253906 111.785156 68.269531 111.460938 68.300781 C 111.476562 68.796875 111.476562 69.300781 111.46875 69.804688 C 111.792969 69.796875 112.117188 69.796875 112.441406 69.789062 Z M 112.660156 80.34375 C 112.652344 79.820312 112.636719 79.300781 112.621094 78.773438 C 112.242188 78.804688 111.863281 78.828125 111.480469 78.859375 C 111.496094 79.363281 111.496094 79.855469 111.480469 80.359375 C 111.878906 80.359375 112.273438 80.351562 112.660156 80.34375 Z M 112.859375 87.964844 C 112.808594 85.796875 112.746094 83.628906 112.691406 81.460938 C 112.101562 81.476562 111.503906 81.484375 110.910156 81.484375 C 110.554688 81.484375 110.367188 81.199219 110.375 80.917969 C 110.367188 80.886719 110.359375 80.863281 110.359375 80.824219 C 110.390625 80.050781 110.390625 79.269531 110.359375 78.492188 C 110.34375 78.269531 110.453125 78.121094 110.597656 78.035156 C 110.683594 77.898438 110.824219 77.796875 111.023438 77.773438 C 111.550781 77.726562 112.070312 77.695312 112.597656 77.65625 C 112.542969 75.402344 112.496094 73.15625 112.457031 70.90625 C 111.9375 70.910156 111.414062 70.925781 110.894531 70.925781 C 110.527344 70.917969 110.351562 70.640625 110.351562 70.363281 C 110.351562 70.332031 110.335938 70.300781 110.335938 70.269531 C 110.375 69.488281 110.375 68.710938 110.335938 67.929688 C 110.328125 67.714844 110.4375 67.566406 110.582031 67.480469 C 110.667969 67.339844 110.808594 67.234375 111.011719 67.21875 C 111.476562 67.171875 111.9375 67.148438 112.402344 67.109375 C 112.402344 66.898438 112.394531 66.683594 112.394531 66.472656 C 111.421875 66.527344 110.4375 66.582031 109.453125 66.613281 C 110.105469 73.910156 110.164062 81.320312 110.15625 88.726562 C 110.179688 88.664062 110.21875 88.617188 110.257812 88.578125 C 110.3125 88.429688 110.421875 88.316406 110.628906 88.285156 C 111.375 88.167969 112.117188 88.074219 112.859375 87.964844 Z M 112.929688 90.597656 C 112.914062 90.089844 112.90625 89.585938 112.890625 89.082031 C 112.335938 89.160156 111.785156 89.230469 111.234375 89.3125 C 111.25 89.792969 111.257812 90.265625 111.257812 90.738281 C 111.816406 90.699219 112.371094 90.652344 112.929688 90.597656 Z M 113.140625 101.171875 C 113.140625 100.660156 113.132812 100.15625 113.125 99.652344 C 112.605469 99.730469 112.078125 99.792969 111.558594 99.878906 C 111.574219 100.351562 111.582031 100.824219 111.582031 101.304688 C 112.101562 101.265625 112.621094 101.21875 113.140625 101.171875 Z M 113.171875 103.488281 C 113.171875 103.085938 113.164062 102.683594 113.15625 102.285156 C 112.441406 102.355469 111.730469 102.417969 111.011719 102.464844 C 110.644531 102.488281 110.46875 102.210938 110.476562 101.929688 C 110.46875 101.890625 110.460938 101.855469 110.460938 101.808594 C 110.484375 101.054688 110.476562 100.296875 110.429688 99.546875 C 110.421875 99.359375 110.484375 99.226562 110.582031 99.136719 C 110.636719 98.996094 110.746094 98.871094 110.957031 98.839844 C 111.667969 98.730469 112.386719 98.640625 113.101562 98.539062 C 113.0625 96.261719 113.007812 93.992188 112.953125 91.714844 C 112.203125 91.792969 111.441406 91.855469 110.683594 91.910156 C 110.34375 91.933594 110.164062 91.675781 110.15625 91.414062 C 110.140625 95.609375 110.136719 99.800781 110.21875 103.96875 C 111.203125 103.804688 112.1875 103.644531 113.171875 103.488281 Z M 116.082031 66.867188 C 116.082031 66.628906 116.074219 66.390625 116.074219 66.148438 C 115.222656 66.242188 114.371094 66.328125 113.511719 66.390625 C 113.511719 66.605469 113.519531 66.816406 113.519531 67.03125 C 114.371094 66.96875 115.230469 66.90625 116.082031 66.867188 Z M 116.113281 69.578125 C 116.105469 69.046875 116.105469 68.519531 116.097656 67.984375 C 115.238281 68.03125 114.386719 68.085938 113.535156 68.148438 C 113.542969 68.679688 113.550781 69.214844 113.558594 69.75 C 114.410156 69.71875 115.261719 69.65625 116.113281 69.578125 Z M 116.277344 77.417969 C 116.222656 75.179688 116.175781 72.933594 116.136719 70.695312 C 115.285156 70.765625 114.425781 70.828125 113.574219 70.863281 C 113.613281 73.101562 113.660156 75.34375 113.714844 77.574219 C 114.5625 77.519531 115.425781 77.464844 116.277344 77.417969 Z M 116.347656 80.121094 C 116.332031 79.59375 116.316406 79.066406 116.308594 78.53125 C 115.449219 78.578125 114.597656 78.632812 113.734375 78.6875 C 113.75 79.230469 113.765625 79.765625 113.773438 80.296875 C 114.632812 80.261719 115.484375 80.199219 116.347656 80.121094 Z M 116.539062 87.492188 C 116.484375 85.402344 116.429688 83.320312 116.367188 81.226562 C 115.519531 81.3125 114.664062 81.375 113.804688 81.414062 C 113.859375 83.542969 113.914062 85.671875 113.976562 87.8125 C 114.828125 87.695312 115.679688 87.59375 116.539062 87.492188 Z M 116.601562 90.089844 C 116.59375 89.59375 116.578125 89.105469 116.5625 88.609375 C 115.710938 88.703125 114.859375 88.808594 114 88.925781 C 114.015625 89.4375 114.03125 89.949219 114.046875 90.460938 C 114.898438 90.351562 115.75 90.234375 116.601562 90.089844 Z M 116.78125 98.066406 C 116.734375 95.78125 116.6875 93.496094 116.632812 91.210938 C 115.78125 91.351562 114.929688 91.476562 114.070312 91.574219 C 114.121094 93.84375 114.175781 96.113281 114.214844 98.382812 C 115.066406 98.269531 115.921875 98.160156 116.78125 98.066406 Z M 116.816406 100.667969 C 116.8125 100.171875 116.804688 99.675781 116.796875 99.171875 C 115.941406 99.273438 115.089844 99.382812 114.238281 99.5 C 114.246094 100.011719 114.246094 100.519531 114.253906 101.03125 C 115.113281 100.933594 115.964844 100.808594 116.816406 100.667969 Z M 116.84375 102.890625 C 116.84375 102.527344 116.835938 102.15625 116.835938 101.792969 C 115.980469 101.929688 115.128906 102.046875 114.269531 102.15625 C 114.277344 102.535156 114.285156 102.921875 114.285156 103.300781 C 115.136719 103.167969 115.988281 103.03125 116.84375 102.890625 Z M 118.972656 69.253906 C 118.996094 68.789062 118.988281 68.332031 118.957031 67.867188 C 118.375 67.882812 117.792969 67.914062 117.214844 67.9375 C 117.222656 68.449219 117.222656 68.96875 117.230469 69.480469 C 117.808594 69.417969 118.390625 69.332031 118.972656 69.253906 Z M 118.988281 79.8125 C 119.011719 79.347656 119.003906 78.890625 118.972656 78.425781 C 118.453125 78.441406 117.941406 78.472656 117.421875 78.492188 C 117.429688 78.996094 117.445312 79.5 117.453125 80.011719 C 117.964844 79.949219 118.476562 79.878906 118.988281 79.8125 Z M 118.996094 89.648438 C 119.019531 89.214844 119.019531 88.78125 118.980469 88.34375 C 118.546875 88.386719 118.113281 88.4375 117.679688 88.484375 C 117.695312 88.957031 117.703125 89.421875 117.71875 89.894531 C 118.144531 89.816406 118.570312 89.730469 118.996094 89.648438 Z M 119.328125 100.203125 C 119.34375 99.769531 119.34375 99.335938 119.304688 98.902344 C 118.839844 98.949219 118.375 99.003906 117.910156 99.058594 C 117.917969 99.53125 117.925781 100.003906 117.933594 100.476562 C 118.398438 100.390625 118.863281 100.304688 119.328125 100.203125 Z M 119.839844 102.402344 C 120.96875 102.21875 121.449219 103.945312 120.320312 104.121094 C 118.203125 104.472656 116.097656 104.8125 113.992188 105.152344 C 113.898438 105.191406 113.804688 105.207031 113.703125 105.199219 C 108.246094 106.082031 102.785156 106.972656 97.324219 107.855469 C 96.195312 108.042969 95.714844 106.320312 96.84375 106.136719 C 98.378906 105.890625 99.902344 105.640625 101.429688 105.394531 C 101.429688 104.953125 101.421875 104.511719 101.414062 104.066406 C 100.152344 104.230469 98.882812 104.363281 97.601562 104.449219 C 97.238281 104.472656 97.0625 104.191406 97.070312 103.914062 C 97.0625 103.867188 97.046875 103.835938 97.046875 103.789062 C 97.078125 103.039062 97.0625 102.277344 97.023438 101.527344 C 97.015625 101.34375 97.078125 101.210938 97.175781 101.117188 C 97.222656 100.976562 97.339844 100.855469 97.539062 100.824219 C 98.8125 100.621094 100.089844 100.453125 101.359375 100.28125 C 101.320312 98.019531 101.273438 95.757812 101.21875 93.488281 C 99.910156 93.667969 98.601562 93.796875 97.277344 93.890625 C 96.914062 93.914062 96.734375 93.636719 96.742188 93.347656 C 96.734375 93.308594 96.71875 93.28125 96.71875 93.234375 C 96.742188 92.472656 96.734375 91.722656 96.695312 90.964844 C 96.6875 90.785156 96.75 90.644531 96.851562 90.5625 C 96.898438 90.414062 97.015625 90.296875 97.214844 90.265625 C 98.515625 90.058594 99.824219 89.878906 101.128906 89.710938 C 101.066406 87.292969 101.003906 84.875 100.941406 82.460938 C 99.917969 82.515625 98.890625 82.542969 97.867188 82.535156 C 97.503906 82.535156 97.324219 82.257812 97.324219 81.972656 C 97.324219 81.941406 97.308594 81.917969 97.308594 81.878906 C 97.339844 81.105469 97.339844 80.328125 97.308594 79.546875 C 97.300781 79.324219 97.402344 79.183594 97.546875 79.097656 C 97.632812 78.960938 97.773438 78.851562 97.972656 78.835938 C 98.933594 78.742188 99.886719 78.6875 100.847656 78.617188 C 100.792969 76.378906 100.746094 74.148438 100.710938 71.910156 C 99.757812 71.957031 98.804688 71.988281 97.84375 71.980469 C 97.488281 71.980469 97.308594 71.695312 97.308594 71.414062 C 97.300781 71.382812 97.292969 71.359375 97.292969 71.324219 C 97.324219 70.546875 97.324219 69.765625 97.292969 68.992188 C 97.277344 68.765625 97.386719 68.617188 97.53125 68.535156 C 97.617188 68.402344 97.757812 68.292969 97.960938 68.269531 C 98.859375 68.195312 99.757812 68.140625 100.65625 68.070312 C 100.65625 67.652344 100.648438 67.226562 100.640625 66.800781 C 99.617188 66.824219 98.59375 66.851562 97.578125 66.890625 C 96.425781 66.945312 96.433594 65.15625 97.578125 65.109375 C 104.804688 64.800781 112.582031 65.21875 119.683594 63.808594 C 120.816406 63.59375 121.289062 65.3125 120.164062 65.535156 C 119.179688 65.730469 118.1875 65.886719 117.191406 66.015625 C 117.191406 66.289062 117.199219 66.558594 117.199219 66.824219 C 117.957031 66.792969 118.714844 66.753906 119.484375 66.730469 C 119.847656 66.722656 120.023438 67.007812 120.015625 67.292969 C 120.023438 67.320312 120.03125 67.339844 120.039062 67.371094 C 120.132812 68.132812 120.140625 68.890625 120.070312 69.648438 C 120.0625 69.726562 120.039062 69.796875 120.007812 69.851562 C 120.003906 70.058594 119.878906 70.246094 119.605469 70.285156 C 118.824219 70.402344 118.035156 70.5 117.253906 70.585938 C 117.289062 72.847656 117.335938 75.109375 117.390625 77.378906 C 118.097656 77.347656 118.792969 77.308594 119.5 77.292969 C 119.863281 77.277344 120.039062 77.574219 120.03125 77.859375 C 120.039062 77.882812 120.054688 77.898438 120.054688 77.929688 C 120.148438 78.6875 120.15625 79.445312 120.085938 80.214844 C 120.078125 80.289062 120.054688 80.351562 120.023438 80.414062 C 120.015625 80.617188 119.902344 80.800781 119.621094 80.839844 C 118.910156 80.949219 118.195312 81.042969 117.484375 81.128906 C 117.539062 83.203125 117.59375 85.285156 117.648438 87.371094 C 118.257812 87.308594 118.871094 87.230469 119.484375 87.167969 C 119.816406 87.136719 119.984375 87.371094 120.007812 87.625 C 120.007812 87.632812 120.023438 87.648438 120.023438 87.65625 C 120.132812 88.445312 120.164062 89.230469 120.101562 90.019531 C 120.09375 90.121094 120.0625 90.195312 120.023438 90.265625 C 119.992188 90.445312 119.878906 90.605469 119.636719 90.652344 C 119.011719 90.792969 118.375 90.910156 117.738281 91.027344 C 117.800781 93.335938 117.847656 95.632812 117.886719 97.941406 C 118.53125 97.871094 119.164062 97.785156 119.808594 97.734375 C 120.140625 97.703125 120.3125 97.925781 120.335938 98.183594 C 120.335938 98.199219 120.351562 98.207031 120.351562 98.21875 C 120.457031 99.011719 120.488281 99.785156 120.429688 100.582031 C 120.421875 100.675781 120.390625 100.753906 120.351562 100.824219 C 120.320312 101.007812 120.203125 101.164062 119.964844 101.21875 C 119.289062 101.355469 118.621094 101.488281 117.941406 101.605469 C 117.949219 101.976562 117.957031 102.339844 117.957031 102.707031 C 118.585938 102.605469 119.210938 102.503906 119.839844 102.402344"/><path fill="inherit" d="M 85.707031 21.914062 C 85.699219 21.375 85.699219 20.824219 85.691406 20.273438 C 84.894531 20.195312 84.09375 20.121094 83.296875 20.058594 C 83.3125 20.5625 83.3125 21.070312 83.296875 21.574219 C 84.101562 21.707031 84.902344 21.824219 85.707031 21.914062 Z M 85.921875 32.78125 C 85.90625 32.242188 85.902344 31.691406 85.886719 31.140625 C 85.023438 31.054688 84.164062 30.96875 83.296875 30.902344 C 83.3125 31.40625 83.3125 31.914062 83.296875 32.417969 C 84.171875 32.566406 85.046875 32.683594 85.921875 32.78125 Z M 86.203125 44.160156 C 86.1875 43.632812 86.179688 43.105469 86.164062 42.574219 C 84.992188 42.527344 83.816406 42.496094 82.640625 42.480469 C 82.65625 42.960938 82.664062 43.449219 82.65625 43.929688 C 83.839844 44.035156 85.015625 44.113281 86.203125 44.160156 Z M 86.402344 55.050781 C 86.394531 54.523438 86.386719 53.996094 86.378906 53.46875 C 85.242188 53.421875 84.101562 53.394531 82.964844 53.378906 C 82.980469 53.855469 82.988281 54.34375 82.980469 54.824219 C 84.117188 54.933594 85.257812 55.003906 86.402344 55.050781 Z M 88.773438 19.453125 C 88.765625 19.066406 88.757812 18.679688 88.757812 18.292969 C 88.113281 18.191406 87.472656 18.097656 86.828125 17.996094 C 86.828125 18.40625 86.835938 18.820312 86.835938 19.230469 C 87.488281 19.289062 88.132812 19.378906 88.773438 19.453125 Z M 88.804688 22.210938 C 88.796875 21.675781 88.789062 21.148438 88.78125 20.613281 C 88.140625 20.539062 87.496094 20.453125 86.851562 20.382812 C 86.859375 20.941406 86.859375 21.496094 86.867188 22.046875 C 87.511719 22.117188 88.15625 22.164062 88.804688 22.210938 Z M 88.953125 30.320312 C 88.898438 28.003906 88.851562 25.6875 88.8125 23.371094 C 88.167969 23.324219 87.527344 23.28125 86.890625 23.21875 C 86.921875 25.503906 86.96875 27.796875 87.023438 30.089844 C 87.664062 30.15625 88.308594 30.242188 88.953125 30.320312 Z M 89.015625 33.070312 C 89.007812 32.542969 88.992188 32.015625 88.984375 31.480469 C 88.332031 31.40625 87.699219 31.320312 87.046875 31.25 C 87.0625 31.808594 87.078125 32.363281 87.085938 32.914062 C 87.726562 32.976562 88.371094 33.03125 89.015625 33.070312 Z M 89.230469 41.574219 C 89.167969 39.125 89.105469 36.679688 89.042969 34.230469 C 88.402344 34.191406 87.757812 34.144531 87.117188 34.085938 C 87.179688 36.546875 87.238281 39.003906 87.300781 41.464844 C 87.945312 41.496094 88.589844 41.535156 89.230469 41.574219 Z M 89.292969 44.207031 C 89.285156 43.71875 89.269531 43.230469 89.261719 42.742188 C 88.617188 42.703125 87.976562 42.65625 87.324219 42.628906 C 87.339844 43.144531 87.347656 43.671875 87.363281 44.191406 C 88.007812 44.207031 88.648438 44.207031 89.292969 44.207031 Z M 89.464844 52.46875 C 89.425781 50.101562 89.378906 47.730469 89.324219 45.367188 C 88.679688 45.367188 88.03125 45.367188 87.386719 45.351562 C 87.441406 47.683594 87.488281 50.023438 87.527344 52.355469 C 88.175781 52.386719 88.820312 52.433594 89.464844 52.46875 Z M 89.5 55.105469 C 89.492188 54.617188 89.484375 54.121094 89.476562 53.632812 C 88.835938 53.59375 88.191406 53.546875 87.542969 53.515625 C 87.550781 54.042969 87.558594 54.5625 87.566406 55.089844 C 88.207031 55.105469 88.851562 55.113281 89.5 55.105469 Z M 89.523438 57.589844 C 89.523438 57.148438 89.515625 56.707031 89.507812 56.265625 C 88.867188 56.273438 88.222656 56.265625 87.574219 56.25 C 87.582031 56.691406 87.589844 57.132812 87.589844 57.574219 C 88.230469 57.574219 88.882812 57.582031 89.523438 57.589844 Z M 90.84375 44.167969 C 90.863281 43.71875 90.855469 43.277344 90.808594 42.835938 C 90.679688 42.820312 90.554688 42.820312 90.421875 42.8125 C 90.429688 43.261719 90.445312 43.71875 90.453125 44.175781 C 90.585938 44.175781 90.71875 44.167969 90.84375 44.167969 Z M 91.167969 55.066406 C 91.191406 54.617188 91.183594 54.175781 91.136719 53.734375 C 90.972656 53.71875 90.808594 53.710938 90.648438 53.703125 C 90.648438 54.160156 90.65625 54.617188 90.664062 55.074219 C 90.828125 55.074219 90.996094 55.074219 91.167969 55.066406 Z M 91.230469 33.171875 C 91.253906 32.707031 91.242188 32.234375 91.207031 31.769531 C 90.855469 31.714844 90.5 31.675781 90.144531 31.628906 C 90.152344 32.132812 90.167969 32.636719 90.175781 33.132812 C 90.53125 33.148438 90.878906 33.164062 91.230469 33.171875 Z M 91.230469 22.328125 C 91.253906 21.863281 91.242188 21.390625 91.207031 20.925781 C 90.789062 20.863281 90.367188 20.816406 89.949219 20.761719 C 89.949219 21.265625 89.957031 21.777344 89.964844 22.28125 C 90.386719 22.304688 90.808594 22.320312 91.230469 22.328125 Z M 90.6875 57.597656 C 91.730469 57.605469 92.777344 57.613281 93.824219 57.621094 C 93.683594 51.230469 93.589844 44.84375 93.476562 38.453125 C 93.359375 32 93.644531 25.371094 93.074219 18.933594 C 92.019531 18.785156 90.972656 18.632812 89.917969 18.46875 C 89.925781 18.851562 89.933594 19.222656 89.933594 19.601562 C 90.59375 19.6875 91.261719 19.757812 91.917969 19.847656 C 92.25 19.902344 92.359375 20.164062 92.320312 20.421875 C 92.328125 20.445312 92.335938 20.46875 92.34375 20.492188 C 92.4375 21.273438 92.445312 22.054688 92.367188 22.839844 C 92.359375 22.953125 92.320312 23.039062 92.265625 23.117188 C 92.203125 23.34375 92.027344 23.519531 91.730469 23.511719 C 91.152344 23.496094 90.5625 23.472656 89.980469 23.441406 C 90.011719 25.78125 90.066406 28.128906 90.121094 30.46875 C 90.71875 30.542969 91.3125 30.605469 91.917969 30.691406 C 92.25 30.746094 92.359375 31.007812 92.320312 31.265625 C 92.328125 31.289062 92.335938 31.3125 92.34375 31.335938 C 92.4375 32.117188 92.445312 32.898438 92.367188 33.679688 C 92.359375 33.796875 92.320312 33.882812 92.265625 33.960938 C 92.203125 34.183594 92.027344 34.363281 91.730469 34.355469 C 91.222656 34.347656 90.71875 34.316406 90.207031 34.292969 C 90.269531 36.75 90.332031 39.195312 90.394531 41.644531 C 90.710938 41.667969 91.027344 41.683594 91.34375 41.707031 C 91.570312 41.71875 91.71875 41.835938 91.808594 41.992188 C 91.824219 42.015625 91.832031 42.039062 91.839844 42.0625 C 91.855469 42.085938 91.863281 42.101562 91.871094 42.125 C 91.886719 42.15625 91.902344 42.175781 91.910156 42.207031 C 92.019531 43.023438 92.058594 43.828125 91.988281 44.648438 C 91.972656 44.773438 91.925781 44.871094 91.863281 44.949219 C 91.785156 45.144531 91.617188 45.304688 91.351562 45.316406 C 91.058594 45.332031 90.773438 45.332031 90.484375 45.339844 C 90.539062 47.738281 90.585938 50.140625 90.625 52.539062 C 90.972656 52.5625 91.320312 52.570312 91.671875 52.601562 C 91.894531 52.617188 92.042969 52.734375 92.136719 52.890625 C 92.152344 52.910156 92.15625 52.933594 92.164062 52.960938 C 92.171875 52.980469 92.191406 52.996094 92.195312 53.019531 C 92.203125 53.050781 92.226562 53.074219 92.234375 53.105469 C 92.34375 53.917969 92.382812 54.722656 92.3125 55.546875 C 92.296875 55.667969 92.25 55.769531 92.179688 55.847656 C 92.113281 56.042969 91.941406 56.203125 91.679688 56.210938 C 91.335938 56.226562 91.003906 56.226562 90.671875 56.234375 C 90.679688 56.691406 90.6875 57.140625 90.6875 57.597656 Z M 98.097656 22.929688 C 98.089844 22.40625 98.089844 21.871094 98.082031 21.34375 C 97.742188 21.3125 97.402344 21.273438 97.0625 21.25 C 97.070312 21.753906 97.070312 22.265625 97.054688 22.769531 C 97.402344 22.828125 97.75 22.878906 98.097656 22.929688 Z M 98.316406 33.804688 C 98.300781 33.269531 98.292969 32.734375 98.277344 32.203125 C 97.875 32.171875 97.464844 32.125 97.0625 32.09375 C 97.070312 32.597656 97.070312 33.109375 97.054688 33.613281 C 97.472656 33.679688 97.898438 33.742188 98.316406 33.804688 Z M 98.578125 44.386719 C 98.5625 43.867188 98.554688 43.347656 98.539062 42.835938 C 97.953125 42.820312 97.371094 42.796875 96.78125 42.78125 C 96.796875 43.269531 96.804688 43.75 96.796875 44.238281 C 97.394531 44.292969 97.980469 44.347656 98.578125 44.386719 Z M 98.789062 55.273438 C 98.78125 54.757812 98.773438 54.246094 98.765625 53.726562 C 98.214844 53.710938 97.65625 53.6875 97.105469 53.679688 C 97.121094 54.167969 97.128906 54.648438 97.121094 55.136719 C 97.671875 55.179688 98.230469 55.234375 98.789062 55.273438 Z M 98.8125 57.660156 C 98.8125 57.25 98.804688 56.847656 98.796875 56.4375 C 98.042969 56.382812 97.285156 56.320312 96.535156 56.25 C 96.261719 56.21875 96.101562 56.050781 96.023438 55.855469 C 95.984375 55.769531 95.953125 55.683594 95.953125 55.570312 C 95.984375 54.785156 95.96875 54.011719 95.929688 53.238281 C 95.914062 53.011719 96.015625 52.867188 96.15625 52.773438 C 96.246094 52.617188 96.394531 52.503906 96.628906 52.511719 C 97.339844 52.515625 98.042969 52.546875 98.75 52.5625 C 98.710938 50.222656 98.65625 47.886719 98.601562 45.546875 C 97.804688 45.492188 97.007812 45.429688 96.210938 45.351562 C 95.945312 45.324219 95.777344 45.152344 95.699219 44.957031 C 95.660156 44.871094 95.628906 44.789062 95.628906 44.671875 C 95.660156 43.890625 95.652344 43.113281 95.605469 42.339844 C 95.589844 42.117188 95.691406 41.96875 95.835938 41.875 C 95.921875 41.71875 96.078125 41.605469 96.308594 41.613281 C 97.046875 41.621094 97.773438 41.652344 98.507812 41.675781 C 98.457031 39.445312 98.402344 37.214844 98.339844 34.980469 C 97.664062 34.882812 96.984375 34.78125 96.308594 34.664062 C 95.976562 34.609375 95.867188 34.355469 95.898438 34.105469 C 95.898438 34.070312 95.882812 34.046875 95.882812 34.007812 C 95.921875 33.210938 95.921875 32.410156 95.890625 31.613281 C 95.882812 31.40625 95.96875 31.257812 96.09375 31.164062 C 96.171875 30.992188 96.332031 30.871094 96.589844 30.886719 C 97.144531 30.929688 97.695312 30.992188 98.253906 31.039062 C 98.199219 28.730469 98.152344 26.414062 98.113281 24.101562 C 97.511719 24.015625 96.90625 23.929688 96.308594 23.820312 C 95.976562 23.769531 95.867188 23.511719 95.898438 23.265625 C 95.898438 23.226562 95.882812 23.203125 95.882812 23.164062 C 95.921875 22.367188 95.921875 21.566406 95.890625 20.769531 C 95.882812 20.5625 95.96875 20.414062 96.09375 20.320312 C 96.171875 20.152344 96.332031 20.027344 96.589844 20.042969 C 97.085938 20.082031 97.574219 20.136719 98.066406 20.183594 C 98.066406 19.972656 98.058594 19.769531 98.058594 19.5625 C 97.03125 19.453125 95.992188 19.328125 94.953125 19.199219 C 95.496094 25.550781 95.21875 32.085938 95.332031 38.453125 C 95.449219 44.84375 95.542969 51.238281 95.683594 57.636719 C 96.71875 57.644531 97.765625 57.652344 98.8125 57.660156 Z M 101.949219 20.570312 C 101.941406 20.335938 101.941406 20.105469 101.941406 19.871094 C 101.035156 19.824219 100.128906 19.757812 99.222656 19.679688 C 99.230469 19.878906 99.230469 20.089844 99.230469 20.289062 C 100.136719 20.375 101.042969 20.46875 101.949219 20.570312 Z M 101.980469 23.363281 C 101.972656 22.824219 101.964844 22.28125 101.957031 21.738281 C 101.058594 21.628906 100.152344 21.535156 99.246094 21.453125 C 99.253906 22.003906 99.253906 22.542969 99.261719 23.085938 C 100.167969 23.203125 101.074219 23.285156 101.980469 23.363281 Z M 102.132812 31.441406 C 102.078125 29.136719 102.03125 26.828125 101.996094 24.527344 C 101.089844 24.449219 100.183594 24.363281 99.277344 24.257812 C 99.316406 26.554688 99.359375 28.847656 99.414062 31.148438 C 100.320312 31.242188 101.226562 31.335938 102.132812 31.441406 Z M 102.195312 34.222656 C 102.179688 33.679688 102.171875 33.148438 102.15625 32.605469 C 101.25 32.496094 100.34375 32.402344 99.4375 32.308594 C 99.453125 32.859375 99.460938 33.410156 99.476562 33.960938 C 100.382812 34.070312 101.289062 34.152344 102.195312 34.222656 Z M 102.390625 41.828125 C 102.335938 39.675781 102.28125 37.53125 102.226562 35.386719 C 101.320312 35.316406 100.414062 35.230469 99.507812 35.121094 C 99.5625 37.3125 99.617188 39.511719 99.671875 41.707031 C 100.578125 41.734375 101.484375 41.773438 102.390625 41.828125 Z M 102.453125 44.507812 C 102.445312 44.003906 102.429688 43.492188 102.414062 42.992188 C 101.515625 42.9375 100.609375 42.898438 99.703125 42.867188 C 99.71875 43.394531 99.726562 43.914062 99.742188 44.441406 C 100.648438 44.476562 101.546875 44.5 102.453125 44.507812 Z M 102.621094 52.71875 C 102.582031 50.371094 102.535156 48.019531 102.480469 45.671875 C 101.574219 45.671875 100.671875 45.640625 99.765625 45.601562 C 99.816406 47.933594 99.871094 50.265625 99.910156 52.59375 C 100.816406 52.625 101.714844 52.671875 102.621094 52.71875 Z M 102.660156 55.40625 C 102.652344 54.894531 102.652344 54.390625 102.644531 53.878906 C 101.738281 53.835938 100.832031 53.796875 99.925781 53.765625 C 99.933594 54.28125 99.941406 54.808594 99.949219 55.328125 C 100.847656 55.375 101.753906 55.398438 102.660156 55.40625 Z M 102.683594 57.683594 C 102.683594 57.3125 102.675781 56.941406 102.675781 56.566406 C 101.769531 56.558594 100.863281 56.535156 99.957031 56.492188 C 99.964844 56.886719 99.972656 57.273438 99.972656 57.667969 C 100.878906 57.675781 101.785156 57.683594 102.683594 57.683594 Z M 104.984375 44.46875 C 105.007812 44.027344 105 43.578125 104.953125 43.136719 C 104.496094 43.105469 104.039062 43.085938 103.582031 43.058594 C 103.589844 43.539062 103.605469 44.019531 103.613281 44.507812 C 104.070312 44.5 104.527344 44.484375 104.984375 44.46875 Z M 104.992188 34.371094 C 105.015625 33.898438 105.007812 33.425781 104.96875 32.960938 C 104.417969 32.882812 103.867188 32.820312 103.328125 32.753906 C 103.335938 33.269531 103.351562 33.789062 103.355469 34.300781 C 103.898438 34.332031 104.441406 34.355469 104.992188 34.371094 Z M 104.992188 23.527344 C 105.015625 23.054688 105.007812 22.582031 104.96875 22.117188 C 104.355469 22.03125 103.738281 21.964844 103.125 21.886719 C 103.125 22.40625 103.132812 22.921875 103.140625 23.449219 C 103.753906 23.480469 104.371094 23.503906 104.992188 23.527344 Z M 105.308594 55.367188 C 105.332031 54.925781 105.324219 54.476562 105.277344 54.035156 C 104.789062 54.003906 104.296875 53.980469 103.808594 53.949219 C 103.8125 54.4375 103.8125 54.917969 103.820312 55.40625 C 104.316406 55.398438 104.8125 55.390625 105.308594 55.367188 Z M 106.378906 53.414062 C 106.488281 54.230469 106.523438 55.027344 106.449219 55.847656 C 106.441406 55.980469 106.394531 56.074219 106.324219 56.15625 C 106.246094 56.351562 106.085938 56.507812 105.8125 56.523438 C 105.152344 56.542969 104.496094 56.558594 103.839844 56.566406 C 103.839844 56.949219 103.847656 57.320312 103.847656 57.699219 C 104.597656 57.699219 105.339844 57.707031 106.085938 57.714844 C 107.285156 57.722656 107.285156 59.582031 106.085938 59.574219 C 103.890625 59.558594 101.699219 59.542969 99.507812 59.519531 C 99.4375 59.535156 99.375 59.535156 99.308594 59.519531 C 93.480469 59.472656 87.65625 59.433594 81.835938 59.386719 C 80.640625 59.378906 80.640625 57.519531 81.835938 57.527344 C 83.367188 57.535156 84.894531 57.550781 86.425781 57.558594 C 86.425781 57.109375 86.417969 56.660156 86.410156 56.210938 C 85.070312 56.164062 83.730469 56.074219 82.390625 55.941406 C 82.128906 55.910156 81.957031 55.746094 81.878906 55.546875 C 81.84375 55.46875 81.8125 55.375 81.8125 55.257812 C 81.84375 54.484375 81.835938 53.703125 81.789062 52.925781 C 81.773438 52.703125 81.871094 52.554688 82.019531 52.464844 C 82.105469 52.316406 82.253906 52.199219 82.492188 52.199219 C 83.777344 52.214844 85.070312 52.261719 86.363281 52.308594 C 86.328125 49.976562 86.28125 47.652344 86.226562 45.324219 C 84.839844 45.277344 83.453125 45.183594 82.066406 45.042969 C 81.804688 45.011719 81.632812 44.847656 81.554688 44.648438 C 81.515625 44.570312 81.484375 44.476562 81.484375 44.363281 C 81.515625 43.585938 81.507812 42.804688 81.460938 42.03125 C 81.453125 41.804688 81.554688 41.660156 81.695312 41.566406 C 81.78125 41.417969 81.933594 41.300781 82.167969 41.300781 C 83.492188 41.316406 84.816406 41.363281 86.140625 41.410156 C 86.078125 38.925781 86.007812 36.4375 85.953125 33.953125 C 84.816406 33.820312 83.675781 33.664062 82.546875 33.472656 C 82.222656 33.417969 82.105469 33.164062 82.144531 32.914062 C 82.136719 32.875 82.128906 32.851562 82.128906 32.8125 C 82.160156 32.015625 82.160156 31.21875 82.128906 30.414062 C 82.121094 30.210938 82.207031 30.066406 82.328125 29.972656 C 82.414062 29.800781 82.570312 29.667969 82.824219 29.691406 C 83.839844 29.769531 84.847656 29.878906 85.859375 29.980469 C 85.808594 27.679688 85.761719 25.378906 85.722656 23.085938 C 84.660156 22.953125 83.609375 22.816406 82.546875 22.628906 C 82.222656 22.574219 82.105469 22.320312 82.144531 22.070312 C 82.136719 22.03125 82.128906 22.011719 82.128906 21.972656 C 82.160156 21.171875 82.160156 20.375 82.128906 19.570312 C 82.121094 19.367188 82.207031 19.222656 82.328125 19.128906 C 82.414062 18.957031 82.570312 18.824219 82.824219 18.851562 C 83.777344 18.921875 84.730469 19.019531 85.675781 19.121094 C 85.675781 18.6875 85.667969 18.261719 85.667969 17.828125 C 84.582031 17.671875 83.5 17.519531 82.429688 17.386719 C 81.261719 17.238281 81.246094 15.378906 82.429688 15.527344 C 90.136719 16.488281 98.222656 18.277344 105.992188 18.066406 C 107.191406 18.035156 107.191406 19.894531 105.992188 19.925781 C 105.03125 19.957031 104.070312 19.949219 103.101562 19.917969 C 103.101562 20.1875 103.109375 20.453125 103.109375 20.722656 C 103.960938 20.824219 104.820312 20.925781 105.671875 21.050781 C 106.015625 21.097656 106.121094 21.359375 106.074219 21.613281 C 106.085938 21.636719 106.097656 21.660156 106.097656 21.683594 C 106.191406 22.472656 106.207031 23.246094 106.128906 24.039062 C 106.121094 24.148438 106.074219 24.238281 106.03125 24.316406 C 105.96875 24.535156 105.789062 24.710938 105.496094 24.703125 C 104.714844 24.6875 103.9375 24.65625 103.15625 24.613281 C 103.195312 26.9375 103.242188 29.257812 103.296875 31.589844 C 104.085938 31.691406 104.882812 31.777344 105.671875 31.890625 C 106.015625 31.9375 106.121094 32.203125 106.074219 32.457031 C 106.085938 32.480469 106.097656 32.503906 106.097656 32.527344 C 106.191406 33.316406 106.207031 34.09375 106.128906 34.882812 C 106.121094 34.988281 106.074219 35.082031 106.03125 35.160156 C 105.96875 35.378906 105.789062 35.554688 105.496094 35.546875 C 104.789062 35.53125 104.09375 35.5 103.390625 35.464844 C 103.441406 37.609375 103.496094 39.753906 103.550781 41.890625 C 104.195312 41.9375 104.84375 41.960938 105.488281 42.007812 C 105.710938 42.023438 105.859375 42.148438 105.953125 42.300781 C 105.96875 42.316406 105.976562 42.347656 105.984375 42.363281 C 106 42.386719 106.007812 42.410156 106.015625 42.433594 C 106.023438 42.464844 106.046875 42.480469 106.054688 42.519531 C 106.160156 43.332031 106.199219 44.128906 106.128906 44.949219 C 106.113281 45.082031 106.066406 45.175781 106 45.261719 C 105.929688 45.453125 105.757812 45.609375 105.496094 45.625 C 104.875 45.648438 104.257812 45.664062 103.644531 45.671875 C 103.699219 48.039062 103.746094 50.410156 103.785156 52.789062 C 104.457031 52.828125 105.140625 52.859375 105.8125 52.90625 C 106.039062 52.917969 106.183594 53.042969 106.277344 53.199219 C 106.292969 53.214844 106.292969 53.246094 106.308594 53.261719 C 106.316406 53.285156 106.332031 53.308594 106.339844 53.332031 C 106.347656 53.359375 106.371094 53.386719 106.378906 53.414062"/></g></svg>