<?xml version="1.0" encoding="UTF-8" standalone="no"?><svg xmlns="http://www.w3.org/2000/svg" xmlns:xlink="http://www.w3.org/1999/xlink" contentScriptType="text/ecmascript" fill="#000000" width="304.8" zoomAndPan="magnify" contentStyleType="text/css" viewBox="97.8 108.2 304.8 283.6" height="283.6" preserveAspectRatio="xMidYMid meet" version="1"><g><g id="change1_1"><path fill="#ffffff" d="M142.92,285.84c14.59,39.23,52.42,67.25,96.67,67.25v38.71c-37.88,0-73.49-14.75-100.27-41.53 C112.53,323.49,97.78,287.88,97.78,250s14.75-73.49,41.53-100.27c26.78-26.78,62.39-41.53,100.27-41.53v38.71 c-56.84,0-103.09,46.25-103.09,103.09C136.49,262.6,138.76,274.67,142.92,285.84"/></g><g id="change1_2"><path fill="#ffffff" d="M402.62,146.91V108.2c-37.88,0-73.49,14.75-100.27,41.53c-26.78,26.78-41.53,62.39-41.53,100.27 s14.75,73.49,41.53,100.27c26.78,26.78,62.39,41.53,100.27,41.53v-38.71c-50.23,0-92.18-36.11-101.26-83.73h101.26v-38.71H301.36 C310.45,183.02,352.39,146.91,402.62,146.91z"/></g></g></svg>