<?xml version="1.0" encoding="UTF-8" standalone="no"?><svg xmlns="http://www.w3.org/2000/svg" xmlns:xlink="http://www.w3.org/1999/xlink" contentScriptType="text/ecmascript" fill="#000000" width="60" zoomAndPan="magnify" contentStyleType="text/css" viewBox="2.0 2.0 60.0 60.0" height="60" preserveAspectRatio="xMidYMid meet" version="1"><g fill="#ffffff" id="change1_1"><path fill="inherit" d="M 12 57.257812 L 12 62 L 14 62 L 14 57 C 14 56.832031 13.957031 56.664062 13.875 56.515625 L 4.882812 40.328125 C 4.304688 39.289062 4 38.113281 4 36.925781 L 4 18 C 4 16.898438 4.898438 16 6 16 C 7.101562 16 8 16.898438 8 18 L 8 32.351562 C 6.761719 33.800781 6.761719 35.953125 8.066406 37.386719 L 16.261719 46.398438 L 17.738281 45.050781 L 9.546875 36.039062 C 8.894531 35.320312 8.917969 34.21875 9.605469 33.53125 C 9.964844 33.175781 10.445312 32.996094 10.941406 33 C 11.445312 33.015625 11.90625 33.226562 12.242188 33.601562 L 19.257812 41.394531 C 19.328125 41.472656 19.464844 41.570312 19.558594 41.625 C 23.53125 43.894531 26 48.148438 26 52.726562 L 26 62 L 28 62 L 28 52 L 27.976562 52 C 27.730469 47.042969 24.996094 42.496094 20.636719 39.941406 L 13.730469 32.265625 C 13.023438 31.476562 12.050781 31.03125 10.992188 31 C 10.648438 30.992188 10.320312 31.042969 10 31.117188 L 10 18 C 10 15.792969 8.207031 14 6 14 C 3.792969 14 2 15.792969 2 18 L 2 36.925781 C 2 38.453125 2.390625 39.964844 3.132812 41.296875 L 12 57.257812"/><path fill="inherit" d="M 58 14 C 55.792969 14 54 15.792969 54 18 L 54 31.117188 C 53.679688 31.042969 53.347656 30.992188 53.007812 31 C 51.949219 31.03125 50.976562 31.476562 50.269531 32.265625 L 43.363281 39.9375 C 39.03125 42.453125 36.269531 47.019531 36.023438 52 L 36 52 L 36 62 L 38 62 L 38 52.726562 C 38 48.148438 40.46875 43.894531 44.488281 41.597656 C 44.582031 41.542969 44.667969 41.476562 44.742188 41.394531 L 51.757812 33.601562 C 52.09375 33.226562 52.554688 33.015625 53.058594 33 C 53.574219 33 54.035156 33.175781 54.394531 33.53125 C 55.082031 34.21875 55.105469 35.320312 54.453125 36.039062 L 46.261719 45.050781 L 47.738281 46.398438 L 55.933594 37.386719 C 57.238281 35.953125 57.238281 33.800781 56 32.351562 L 56 18 C 56 16.898438 56.898438 16 58 16 C 59.101562 16 60 16.898438 60 18 L 60 36.820312 C 60 38.070312 59.664062 39.296875 59.019531 40.394531 L 50.125 56.515625 C 50.042969 56.664062 50 56.832031 50 57 L 50 62 L 52 62 L 52 57.257812 L 60.757812 41.386719 C 61.570312 40.003906 62 38.425781 62 36.820312 L 62 18 C 62 15.792969 60.207031 14 58 14"/><path fill="inherit" d="M 47 29.164062 L 33 37.265625 L 33 21.585938 L 47 13.710938 Z M 32 19.851562 L 25.59375 16.25 L 39.554688 8.398438 L 45.960938 12 Z M 31 37.265625 L 17 29.164062 L 17 13.710938 L 31 21.585938 Z M 32 4.148438 L 37.515625 7.25 L 23.554688 15.101562 L 18.039062 12 Z M 49 29.742188 L 49 12 C 49 11.910156 48.988281 11.824219 48.964844 11.738281 C 48.957031 11.710938 48.941406 11.683594 48.929688 11.65625 C 48.910156 11.601562 48.894531 11.546875 48.863281 11.5 C 48.847656 11.46875 48.824219 11.449219 48.804688 11.421875 C 48.773438 11.378906 48.746094 11.332031 48.707031 11.292969 C 48.683594 11.273438 48.65625 11.257812 48.632812 11.234375 C 48.589844 11.203125 48.550781 11.164062 48.503906 11.136719 C 48.503906 11.136719 48.5 11.136719 48.496094 11.132812 C 48.492188 11.132812 48.492188 11.128906 48.488281 11.128906 L 32.488281 2.128906 C 32.183594 1.957031 31.816406 1.957031 31.511719 2.128906 L 15.511719 11.128906 C 15.507812 11.128906 15.507812 11.132812 15.503906 11.132812 C 15.503906 11.136719 15.496094 11.136719 15.496094 11.136719 C 15.449219 11.164062 15.410156 11.203125 15.367188 11.234375 C 15.34375 11.257812 15.316406 11.273438 15.292969 11.292969 C 15.253906 11.332031 15.226562 11.378906 15.195312 11.421875 C 15.175781 11.449219 15.152344 11.46875 15.136719 11.5 C 15.105469 11.546875 15.089844 11.601562 15.070312 11.65625 C 15.058594 11.683594 15.042969 11.710938 15.035156 11.738281 C 15.011719 11.824219 15 11.910156 15 12 L 15 29.742188 C 15 30.101562 15.191406 30.429688 15.5 30.609375 L 31.5 39.863281 C 31.5 39.863281 31.5 39.867188 31.5 39.867188 C 31.558594 39.902344 31.625 39.921875 31.691406 39.945312 C 31.707031 39.949219 31.722656 39.960938 31.742188 39.96875 C 31.828125 39.988281 31.914062 40 32 40 C 32.085938 40 32.171875 39.988281 32.257812 39.96875 C 32.277344 39.960938 32.292969 39.949219 32.308594 39.945312 C 32.375 39.921875 32.441406 39.902344 32.5 39.867188 C 32.5 39.867188 32.5 39.863281 32.5 39.863281 L 48.5 30.609375 C 48.808594 30.429688 49 30.101562 49 29.742188"/><path fill="inherit" d="M 45 27 L 43 27 L 43 29 L 45 29 L 45 27"/><path fill="inherit" d="M 41 29 L 39 29 L 39 31 L 41 31 L 41 29"/><path fill="inherit" d="M 37 31 L 35 31 L 35 33 L 37 33 L 37 31"/></g></svg>