<?xml version="1.0" encoding="UTF-8" standalone="no"?><svg xmlns="http://www.w3.org/2000/svg" xmlns:xlink="http://www.w3.org/1999/xlink" contentScriptType="text/ecmascript" fill="#f4f6fc" width="330" zoomAndPan="magnify" contentStyleType="text/css" viewBox="0 0 330 330" height="330" preserveAspectRatio="xMidYMid meet" version="1"><g><g><path d="M54.1 174.3H56.4V193.70000000000002H54.1z"/><path d="M294.5 191.3L308.8 176.4 308.8 174.3 291.5 174.3 291.5 176.6 305.3 176.6 291.4 191.4 291.3 191.5 291.3 193.7 309.5 193.7 309.5 191.3z"/><path d="M22.2 184.6L32.3 184.6 32.3 182.2 22.2 182.2 22.2 176.6 36.8 176.6 36.8 174.3 19.9 174.3 19.9 193.7 37.4 193.7 37.4 191.3 22.2 191.3z"/><path d="M208.3,176.3c-1-0.8-2.1-1.5-3.4-2c-1.3-0.4-2.6-0.7-4.1-0.7c-1.5,0-2.8,0.3-4.1,0.7c-1.3,0.4-2.4,1.1-3.4,2 c-2.2,2-3.3,4.5-3.3,7.6c0,3.1,1.1,5.7,3.3,7.6c1,0.8,2,1.5,3.3,2c1.3,0.4,2.7,0.7,4.2,0.7s2.9-0.3,4.2-0.7c1.3-0.4,2.4-1.1,3.3-2 c2.2-2,3.3-4.5,3.3-7.6C211.7,180.8,210.6,178.3,208.3,176.3z M209.3,183.9c0,1.1-0.2,2.3-0.6,3.3c-0.4,1-1,1.8-1.7,2.5 s-1.6,1.2-2.6,1.6s-2.2,0.6-3.4,0.6c-1.3,0-2.4-0.2-3.4-0.6c-1-0.4-1.9-0.9-2.6-1.6c-0.7-0.7-1.3-1.5-1.7-2.5 c-0.4-1-0.6-2-0.6-3.3c0-2.4,0.9-4.4,2.7-5.9c0.7-0.6,1.6-1.1,2.6-1.5c1-0.4,2-0.5,3.1-0.5c1.1,0,2.2,0.2,3.1,0.5 c1,0.4,1.9,0.8,2.6,1.5C208.4,179.5,209.3,181.5,209.3,183.9z"/><path d="M79.5,178c0.7-0.6,1.6-1.1,2.6-1.5c1-0.3,2-0.5,3.1-0.5c1.5,0,2.9,0.3,4.2,0.7c1.1,0.5,2.2,1.3,3.2,2.3l0.2,0.2l2-0.9 l-0.3-0.4c-1-1.4-2.3-2.5-3.8-3.2s-3.4-1.1-5.4-1.1c-1.5,0-2.8,0.3-4.1,0.7c-1.3,0.4-2.4,1.1-3.3,2c-2.2,2-3.3,4.5-3.3,7.6 c0,1.9,0.4,3.6,1.3,5.2c0.8,1.5,2,2.7,3.6,3.6c1.8,1,3.8,1.5,6.1,1.5c2,0,3.8-0.3,5.3-1c1.5-0.6,2.7-1.7,3.6-2.9l0.2-0.3l-1.9-1.3 l-0.2,0.3c-0.8,1-1.9,1.8-3,2.2c-1.2,0.4-2.6,0.7-4.3,0.7c-1.3,0-2.4-0.2-3.4-0.6c-1-0.4-1.9-1-2.6-1.6c-0.7-0.7-1.3-1.5-1.7-2.5 c-0.4-1-0.6-2-0.6-3.3C76.8,181.5,77.7,179.5,79.5,178z"/><path d="M257 176.6L265.2 176.6 265.2 193.7 267.5 193.7 267.5 176.6 275.8 176.6 275.8 174.3 257 174.3z"/><path d="M233.5 174.3L231.3 174.3 231.3 193.7 246.9 193.7 246.9 191.3 233.5 191.3z"/><path d="M169.7 182.2L155.3 182.2 155.3 174.3 153 174.3 153 193.7 155.3 193.7 155.3 184.6 169.7 184.6 169.7 193.7 172 193.7 172 174.3 169.7 174.3z"/><path d="M130.7 182.2L116.2 182.2 116.2 174.3 114 174.3 114 193.7 116.2 193.7 116.2 184.6 130.7 184.6 130.7 193.7 133 193.7 133 174.3 130.7 174.3z"/></g><g><g><path d="M134.4,219.7h3.5v1.2h-4.9v-7.7h4.7v1.2h-3.4v2.1h2.9v1.2h-2.9V219.7L134.4,219.7z"/><path d="M141.2,218.6h1.3c0,0.6,0.6,1.1,1.4,1.1c0.8,0,1.3-0.5,1.3-1.1c0-0.5-0.4-0.8-1.1-1l-1-0.3c-1.7-0.4-1.9-1.4-1.9-2.1 c0-1.3,1.2-2.3,2.6-2.3s2.5,0.9,2.5,2.3H145c0-0.6-0.5-1.1-1.2-1.1c-0.6,0-1.2,0.4-1.2,1c0,0.2,0.1,0.6,1,0.9l0.9,0.3 c1.2,0.3,2.1,1,2.1,2.2c0,1.4-1.1,2.4-2.7,2.4C142.4,221,141.2,220,141.2,218.6z"/><path d="M155.2,213.2v1.2H153v6.4h-1.3v-6.4h-2.2v-1.2H155.2z"/><path d="M157.4,220.2c0-0.5,0.4-0.8,0.8-0.8s0.8,0.3,0.8,0.8s-0.4,0.8-0.8,0.8S157.4,220.6,157.4,220.2z"/><path d="M170,213.5L170,213.5l0.1,7.4h-1.3v-5.6l-1.7,0.6v-1.2L170,213.5z"/><path d="M179.3,217c0,2-0.9,4-3.1,4c-0.9,0-1.9-0.4-2.3-1.5l1.1-0.6c0.3,0.6,0.8,0.8,1.2,0.8c1,0,1.7-1,1.7-2.2 c-0.4,0.4-0.9,0.7-1.7,0.7c-1.5,0-2.5-1.1-2.5-2.4c0-1.3,1-2.4,2.7-2.4C178.3,213.5,179.3,214.9,179.3,217z M177.9,216 c0-0.7-0.6-1.3-1.3-1.3c-0.8,0-1.4,0.5-1.4,1.2s0.6,1.2,1.3,1.2C177.3,217.2,177.9,216.7,177.9,216z"/><path d="M188.1,217c0,2-0.9,4-3.1,4c-0.9,0-1.9-0.4-2.3-1.5l1.1-0.6c0.3,0.6,0.8,0.8,1.2,0.8c1,0,1.7-1,1.7-2.2 c-0.4,0.4-0.9,0.7-1.7,0.7c-1.5,0-2.5-1.1-2.5-2.4c0-1.3,1-2.4,2.7-2.4C187.1,213.5,188.1,214.9,188.1,217z M186.7,216 c0-0.7-0.6-1.3-1.3-1.3c-0.8,0-1.4,0.5-1.4,1.2s0.6,1.2,1.3,1.2C186.1,217.2,186.7,216.7,186.7,216z"/><path d="M193.6,219.7h2.7v1.2h-4.8v-0.6l2.8-3.4c0.4-0.4,0.6-0.9,0.6-1.2c0-0.6-0.4-1-1.1-1c-0.7,0-1.1,0.4-1.2,1.1l-1.1-0.3 c0.2-1.2,1-2,2.4-2c1.4,0,2.4,0.9,2.4,2.2c0,0.6-0.3,1.3-0.8,1.9L193.6,219.7z"/></g></g><g><path d="M170.5 144.4L195.4 144.4 195.4 140.3 174.6 140.3 174.6 134 185 134 185 129.8 174.6 129.8 174.6 123.6 195.4 123.6 195.4 119.4 170.5 119.4 170.5 129.8 159 129.8 159 119.4 133.9 119.4 133.9 123.6 154.8 123.6 154.8 129.8 144.4 129.8 144.4 134 154.8 134 154.8 140.3 133.9 140.3 133.9 144.4 159 144.4 159 134 170.5 134z"/><path d="M123.5,109v45.8h82.3V109H123.5z M201.7,150.7h-74v-37.5h74V150.7z"/></g></g></svg>