<?xml version="1.0" encoding="UTF-8" standalone="no"?><svg xmlns="http://www.w3.org/2000/svg" xmlns:xlink="http://www.w3.org/1999/xlink" contentScriptType="text/ecmascript" fill="#ffffff" width="500" zoomAndPan="magnify" contentStyleType="text/css" viewBox="0.0 1.3 500.0 373.7" height="373.7" preserveAspectRatio="xMidYMid meet" version="1"><g id="change1_1"><path fill="inherit" d="M276,194.4h-52c-40.6,0-73.5,32.9-73.5,73.5v83.7h0c64.2,23.4,134.7,23.4,198.9,0h0v-83.7 C349.5,227.3,316.6,194.4,276,194.4z"/><circle fill="inherit" r="60.3" cx="250" cy="110"/><path fill="inherit" d="M426.5,146h-52c-28.6,0-53.4,16.4-65.5,40.3c32.2,13.1,55,44.7,55,81.5v50.6c45.6,5.8,92.3,0.7,136-15.2h0v-83.7 C500,178.9,467.1,146,426.5,146z"/><circle fill="inherit" r="60.3" cx="400.5" cy="61.6"/><path fill="inherit" d="M191,186.4c-12.1-23.9-36.9-40.3-65.5-40.3h-52C32.9,146,0,178.9,0,219.5v83.7h0c43.8,16,90.4,21,136,15.2v-50.6 C136,231,158.8,199.4,191,186.4z"/><circle fill="inherit" r="60.3" cx="99.5" cy="61.6"/></g></svg>